<?xml version="1.0" encoding="utf-8"?>
<!-- Generator: Adobe Illustrator 27.3.1, SVG Export Plug-In . SVG Version: 6.00 Build 0)  -->
<svg version="1.1" id="Layer_1" xmlns="http://www.w3.org/2000/svg" xmlns:xlink="http://www.w3.org/1999/xlink" x="0px" y="0px"
	 viewBox="0 0 1505 587" style="enable-background:new 0 0 1505 587;" xml:space="preserve">
<style type="text/css">
	.st0{fill:#FFFFFF;}
</style>
<g>
	<path class="st0" d="M387.4,214.4c-8.3-5.8-17.5-10.4-27.1-13.7c27.1-79.2-15.1-165.3-94.2-192.4S100.8,23.3,73.7,102.5
		c-10.9,31.8-10.9,66.4,0,98.2C16.9,220-13.5,281.6,5.8,338.4c17.4,51.3,70,81.9,123.2,71.7l-56.2-56.2c-2.9-2.9-2.9-7.7,0-10.6
		s7.7-2.9,10.6,0l62.2,62.2c23.7-8.6,43.6-25.2,56.4-46.9V201c0-8.3,6.7-15,15-15c8.3,0,15,6.7,15,15v157.6
		c5.4,9.1,12,17.4,19.8,24.5l97.8-97.8c2.9-2.9,7.7-2.9,10.6,0s2.9,7.7,0,10.6l-96.7,96.7c-4.1-2.9-8.1-6-11.7-9.5L232,402.9v-44.3
		c-9.8-16.7-15-35.7-15-55.1c0,19.4-5.2,38.4-15,55.1v103.3l-56.4-56.4c-5.4,2-11,3.5-16.6,4.6l73,73V571c0,8.3,6.7,15,15,15
		c8.3,0,15-6.7,15-15V424.1l31.5-31.5c49.2,34.2,116.8,22,151-27.2C448.8,316.2,436.6,248.6,387.4,214.4z"/>
	<path class="st0" d="M603.5,444.9c-6.8-6-16-9-27.5-9h-49.8v116h24.1v-41.7h24.2c12.6,0,22.3-2.8,29.1-8.5
		c6.8-5.7,10.2-15.3,10.2-29C613.7,460.2,610.3,450.9,603.5,444.9z M585,486.1c-3.1,2.8-7.4,4.2-12.9,4.2h-21.8v-34.2h21.8
		c5.5,0,9.8,1.3,12.9,3.9c3.1,2.6,4.6,6.9,4.6,12.9C589.7,478.9,588.1,483.3,585,486.1z"/>
	<path class="st0" d="M703.6,475c-2.7-3.7-6.4-6.6-10.6-8.4c-4.5-1.9-9.4-2.8-14.3-2.8c-4.6,0-9.2,1-13.4,3c-4.3,2-8,5.4-11.2,10.4
		v-40.9h-22.5V552h22.4v-46.5c0-7.3,1.5-13,4.6-17c3-4,7.5-6,13.4-6c5.7,0,9.6,2,11.6,6c1.6,2.8,2.3,6.6,2.3,11.2v52.2h22.9v-50.4
		c0.1-5.5-0.2-11.1-0.8-16.6C707.3,481.3,705.8,477.9,703.6,475z"/>
	<path class="st0" d="M768.4,463.4c-14.8,0-25.8,4.5-33,13.6s-10.9,19.8-10.9,32.2c0,12.6,3.6,23.3,10.8,32.3
		c7.2,8.9,18.2,13.4,33,13.4c14.8,0,25.8-4.5,33-13.4c7.2-9,10.9-19.7,10.9-32.3c0-12.4-3.6-23.1-10.9-32.2
		C794.1,467.9,783.1,463.4,768.4,463.4z M783.4,529c-3.5,4.7-8.5,7-15.1,7s-11.6-2.3-15.2-7c-3.5-4.7-5.3-11.3-5.3-19.9
		c0-8.6,1.8-15.2,5.3-19.9c3.5-4.6,8.6-7,15.2-7c6.6,0,11.6,2.3,15.1,7c3.5,4.6,5.3,11.3,5.3,19.9
		C788.7,517.7,786.9,524.3,783.4,529z"/>
	<path class="st0" d="M853.7,443h-22.2v23.9h-12v16h12v52.9c0,5.3,1.3,9.3,3.8,11.9c3.9,4,11.1,5.9,21.7,5.5l10.6-0.4V536
		c-0.7,0.1-1.5,0.1-2.2,0.1s-1.5,0-2.2,0c-4.6,0-7.3-0.4-8.2-1.3s-1.3-3-1.3-6.6v-45.3h14v-16h-13.9V443z"/>
	<path class="st0" d="M920.5,463.4c-14.8,0-25.8,4.5-33,13.6s-10.9,19.8-10.9,32.2c0,12.6,3.6,23.3,10.8,32.3
		c7.2,8.9,18.2,13.4,33,13.4s25.8-4.5,33-13.4c7.2-9,10.9-19.7,10.9-32.3c0-12.4-3.6-23.1-10.9-32.2
		C946.3,467.9,935.3,463.4,920.5,463.4z M935.5,529c-3.5,4.7-8.5,7-15.1,7s-11.6-2.3-15.2-7c-3.5-4.7-5.3-11.3-5.3-19.9
		c0-8.6,1.8-15.2,5.3-19.9c3.5-4.6,8.6-7,15.2-7c6.6,0,11.6,2.3,15.1,7c3.5,4.6,5.3,11.3,5.3,19.9C940.8,517.7,939,524.3,935.5,529z
		"/>
	<path class="st0" d="M1036,478.5c-3.3-6-7.7-10.2-13.2-12.4c-3.6-1.4-7.4-2-11.2-2c-11.7,0-20.7,4.3-27,13
		c-6.3,8.7-9.5,19.4-9.5,32.1c0,13.2,3.3,23.7,9.9,31.4c6.6,7.7,15.4,11.6,26.4,11.6c7.1,0,12.9-1.7,17.4-5.1
		c2.8-2.3,5.2-5.1,6.9-8.3v5.5c0,8.2-0.9,14-2.7,17.5c-2.7,5.4-8.1,8.1-16.2,8.1c-5.7,0-9.8-1-12.2-3.1c-1.6-1.5-2.7-3.5-3.1-5.7
		h-24.4c0.7,8.6,4.6,15,11.5,19.3c6.9,4.3,15.9,6.5,26.8,6.5c18.2,0,30.4-4.8,36.8-14.5c3.7-5.6,5.6-13.9,5.6-25v-81.4H1036V478.5z
		 M1030.5,527.6c-3.3,3.8-8.2,6-13.2,5.9c-7.8,0-13.3-3.6-16.3-10.9c-1.7-4.2-2.6-8.7-2.5-13.3c-0.1-5,0.7-9.9,2.3-14.6
		c3-7.4,8.4-11.1,16.2-11.1c5.3-0.2,10.4,2.2,13.7,6.4c3.4,4.3,5.1,10.4,5.1,18.6C1035.9,517.3,1034.1,523.6,1030.5,527.6z"/>
	<path class="st0" d="M1125.4,464.1c-6.7,0-12.2,1.8-16.4,5.3c-2.6,2.1-5.6,6-9.1,11.7v-15h-21.4v85.8h22.6v-41
		c0-6.9,0.9-12,2.6-15.3c3.1-5.9,9.2-8.8,18.2-8.8c0.7,0,1.6,0,2.7,0.1s2.4,0.2,3.8,0.3v-23c-1,0-1.6-0.1-1.9-0.1
		C1126.2,464.1,1125.8,464.1,1125.4,464.1z"/>
	<path class="st0" d="M1213.1,546c-0.7-1.1-1.2-3.1-1.3-6c-0.1-3.9-0.2-7.2-0.2-9.9v-39.3c0-10.3-3.7-17.4-11-21.1
		c-7.8-3.8-16.4-5.8-25.1-5.6c-14.5,0-24.7,3.8-30.7,11.3c-3.7,4.8-5.9,11-6.3,18.5h21.7c0.3-2.9,1.4-5.6,3.2-7.9
		c2.2-2.6,6-3.9,11.4-3.9c4.8,0,8.4,0.7,10.9,2c2.5,1.3,3.7,3.8,3.7,7.3c0,2.9-1.6,5-4.8,6.4c-2.9,1.1-5.9,1.7-9,2l-7.7,0.9
		c-8.7,1.1-15.3,2.9-19.8,5.5c-8.2,4.7-12.3,12.3-12.3,22.9c0,8.1,2.5,14.4,7.6,18.8c5.1,4.4,11.6,6.7,19.4,6.7
		c5.8,0.1,11.4-1.3,16.5-4.2c4-2.3,7.6-5.2,10.8-8.6c0.2,1.9,0.4,3.7,0.6,5.2c0.3,1.7,0.8,3.3,1.4,4.9h24.4v-3.3
		C1215.1,548.1,1214,547.2,1213.1,546z M1182.8,534.1c-4,2.8-8.7,4.3-13.6,4.2c-2.8,0.1-5.6-0.8-7.9-2.5c-2.2-1.7-3.2-4.5-3.2-8.3
		c-0.2-3.9,1.9-7.6,5.3-9.5c2.1-1.2,5.5-2.2,10.3-3.1l5.1-0.9c2-0.3,4-0.9,6-1.5c1.5-0.6,3-1.3,4.3-2.2l0,8.3
		C1189.1,526.1,1187,531.2,1182.8,534.1z"/>
	<path class="st0" d="M1277.7,464.3c-6.4-0.2-12.7,1.9-17.9,5.7c-3,2.5-5.7,5.5-7.8,8.8v-12.7h-21.5v119.5h22.2V541
		c1.9,3.1,4.4,5.9,7.3,8.3c4.5,3.4,10.2,5.1,17.1,5.1c10.8,0,19.6-4,26.4-11.9c6.8-7.9,10.3-19.4,10.3-34.5
		c0-14.3-3.5-25.2-10.5-32.6C1296.8,468.1,1287.5,464.1,1277.7,464.3z M1285.7,528.3c-3.3,4.8-8.1,7.2-14.4,7.2
		c-4.1,0.1-8-1.1-11.3-3.5c-5.3-4-8-11-8-21c0-6.3,0.8-11.5,2.4-15.6c3.1-7.7,8.7-11.6,16.9-11.6c6.8,0,11.8,2.5,14.8,7.6
		c3.1,5.3,4.7,11.4,4.6,17.5C1290.7,517,1289,523.5,1285.7,528.3z"/>
	<path class="st0" d="M1401.9,475c-2.7-3.7-6.4-6.6-10.6-8.4c-4.6-1.9-9.4-2.9-14.4-2.8c-4.6,0-9.2,1-13.4,3c-4.3,2-8,5.4-11.2,10.4
		v-40.9h-22.4V552h22.4v-46.5c0-7.3,1.5-13,4.6-17s7.5-6,13.4-6c5.7,0,9.6,2,11.6,6c1.6,2.8,2.3,6.6,2.3,11.2v52.2h22.9v-50.4
		c0.1-5.5-0.1-11.1-0.8-16.6C1405.6,481.3,1404.1,477.9,1401.9,475z"/>
	<path class="st0" d="M1462.9,529.4l-18.7-63.3h-24.9l31.5,89.6c0.2,0.6-0.3,2.4-1.5,5.2s-2.3,4.7-3.7,5.6c-1.5,1-3.2,1.6-5,1.8
		c-2.1,0.3-4.2,0.3-6.3,0.2l-2.8-0.2l0,18c2.4,0.2,4.2,0.3,5.4,0.3s2.8,0,4.8,0c9.9,0,16.5-2,19.8-5.9c3.3-3.9,7.8-14,13.5-30.3
		l29.4-84.4h-23.8L1462.9,529.4z"/>
	<polygon class="st0" points="409.3,102.9 525.7,102.9 525.7,421.6 607.2,421.6 607.2,102.9 723,102.9 723,34.3 409.3,34.3 	"/>
	<path class="st0" d="M878.8,204.3c2.3,0,5.3,0.1,8.9,0.3s7.9,0.5,12.6,1v-76.7c-3.3-0.2-5.4-0.3-6.4-0.4c-0.9-0.1-2.1-0.1-3.5-0.1
		c-22.4,0-40.7,5.9-54.7,17.6c-8.6,7-18.6,20.1-30.2,39.1v-49.9H734v286.4h75.4V284.8c0-23,2.9-40,8.7-51
		C828.5,214.1,848.7,204.3,878.8,204.3z"/>
	<path class="st0" d="M1174,389.5c16.5-17.5,25.8-34.8,27.8-51.8h-76.4c-4.5,8.4-9.6,15-15.4,19.7c-10.7,8.8-24.5,13.1-41.6,13.1
		c-16.1,0-29.8-3.6-41.3-10.8c-18.8-11.6-28.8-31.7-30-60.4h208.6c0.4-24.7-0.5-43.7-2.5-56.8c-3.5-22.5-11.1-42.2-22.8-59.2
		c-13-19.3-29.5-33.4-49.5-42.4c-20-8.9-42.4-13.4-67.3-13.4c-42,0-76.1,13.2-102.4,39.7c-26.3,26.5-39.5,64.5-39.5,114.1
		c0,52.9,14.6,91.2,43.7,114.7c29.1,23.5,62.8,35.2,100.9,35.2C1112.5,431.3,1148.4,417.4,1174,389.5z M1018.9,205.7L1018.9,205.7
		c10.6-10.9,25.4-16.3,44.6-16.4c17.6,0,32.4,5.1,44.4,15.4s18.7,25.4,20,45.2h-129C1001.6,231.4,1008.3,216.6,1018.9,205.7z"/>
	<path class="st0" d="M1502.4,242.6c-3.5-22.5-11.1-42.2-22.8-59.2c-13-19.3-29.5-33.4-49.5-42.4c-20-8.9-42.4-13.4-67.4-13.4
		c-42,0-76.1,13.2-102.4,39.7c-26.3,26.5-39.4,64.5-39.4,114.1c0,52.9,14.6,91.2,43.7,114.7c29.1,23.5,62.8,35.2,100.9,35.2
		c46.2,0,82.1-13.9,107.7-41.8c16.5-17.5,25.8-34.8,27.8-51.8h-76.4c-4.5,8.4-9.6,15-15.4,19.7c-10.7,8.8-24.5,13.1-41.6,13.1
		c-16.1,0-29.8-3.6-41.3-10.8c-18.8-11.6-28.8-31.7-30-60.4h208.6C1505.3,274.7,1504.4,255.7,1502.4,242.6z M1298.2,250
		c2.7-18.6,9.4-33.4,19.9-44.3c10.6-10.9,25.5-16.3,44.7-16.4c17.7,0,32.5,5.1,44.4,15.4s18.6,25.4,19.9,45.2H1298.2z"/>
</g>
</svg>
