<?xml version="1.0" encoding="UTF-8"?><svg id="Layer_1" xmlns="http://www.w3.org/2000/svg" viewBox="0 0 1504.99 586.94"><defs><style>.cls-1{fill:#fff;}</style></defs><path class="cls-1" d="m387.42,214.32c-8.35-5.8-17.47-10.4-27.1-13.67,27.12-79.15-15.06-165.31-94.21-192.43-79.15-27.12-165.31,15.06-192.43,94.21-10.91,31.83-10.91,66.39,0,98.22C16.92,219.91-13.48,281.54,5.79,338.3c17.41,51.31,70,81.91,123.21,71.71l-56.21-56.17c-2.93-2.93-2.93-7.68,0-10.61s7.68-2.93,10.61,0l62.2,62.2c23.67-8.64,43.6-25.23,56.4-46.93v-157.56c0-8.28,6.72-15,15-15s15,6.72,15,15v157.56c5.37,9.1,12.03,17.37,19.79,24.55l97.81-97.82c2.93-2.93,7.68-2.93,10.61,0s2.93,7.68,0,10.61l-96.67,96.67c-4.13-2.88-8.06-6.04-11.75-9.46l-19.79,19.78v-44.33c-9.85-16.68-15.03-35.69-15-55.06.03,19.37-5.15,38.38-15,55.06v103.33l-56.4-56.4c-5.4,1.96-10.95,3.49-16.6,4.58l73,73v87.93c0,8.28,6.72,15,15,15s15-6.72,15-15v-146.89l31.54-31.54c49.21,34.21,116.83,22.05,151.03-27.16,34.21-49.21,22.05-116.83-27.16-151.03Z"/><path class="cls-1" d="m603.47,444.87c-6.83-6-15.99-9-27.47-9h-49.78v116h24.08v-41.71h24.16c12.61,0,22.3-2.83,29.09-8.5,6.79-5.67,10.18-15.34,10.16-29.01,0-12.52-3.41-21.78-10.24-27.78Zm-18.42,41.13c-3.07,2.78-7.37,4.17-12.9,4.17h-21.85v-34.16h21.85c5.53,0,9.83,1.29,12.9,3.86,3.07,2.57,4.6,6.87,4.6,12.91,0,6.03-1.53,10.44-4.6,13.22Z"/><path class="cls-1" d="m703.62,474.99c-2.7-3.73-6.38-6.64-10.62-8.43-4.53-1.89-9.41-2.85-14.32-2.8-4.65,0-9.23,1.03-13.44,3-4.25,1.97-8,5.44-11.24,10.42v-40.92h-22.48v115.67h22.43v-46.49c0-7.33,1.52-13,4.57-17,3.05-4,7.51-6,13.4-6s9.56,2,11.56,6c1.56,2.84,2.34,6.57,2.34,11.19v52.24h22.9v-50.41c.11-5.54-.15-11.08-.79-16.58-.61-3.6-2.09-6.99-4.31-9.89Z"/><path class="cls-1" d="m768.4,463.33c-14.76,0-25.76,4.54-33,13.61s-10.86,19.79-10.86,32.16,3.6,23.32,10.81,32.27c7.24,8.94,18.24,13.41,33,13.41s25.76-4.47,33-13.41c7.24-8.95,10.88-19.71,10.91-32.27.02-12.37-3.6-23.09-10.86-32.16-7.26-9.07-18.26-13.61-33-13.61Zm15.01,65.61c-3.51,4.67-8.55,7-15.11,7s-11.61-2.33-15.15-7c-3.54-4.69-5.31-11.31-5.31-19.88,0-8.57,1.77-15.18,5.31-19.85,3.53-4.64,8.58-6.96,15.15-6.95,6.57,0,11.6,2.32,15.11,6.95,3.51,4.65,5.26,11.26,5.27,19.85,0,8.59-1.75,15.21-5.27,19.88Z"/><path class="cls-1" d="m853.65,442.94h-22.19v23.91h-12v16h11.96v52.86c0,5.35,1.26,9.31,3.77,11.88,3.89,4.04,11.13,5.88,21.72,5.51l10.63-.39v-16.77c-.74.06-1.48.12-2.24.12h-2.17c-4.56,0-7.28-.44-8.18-1.3s-1.34-3.05-1.34-6.57v-45.33h13.97v-16h-13.93v-23.92Z"/><path class="cls-1" d="m920.53,463.33c-14.76,0-25.76,4.54-33,13.61s-10.86,19.79-10.86,32.16,3.6,23.32,10.81,32.27c7.24,8.94,18.24,13.41,33,13.41s25.76-4.47,33-13.41c7.24-8.95,10.88-19.71,10.91-32.27,0-12.37-3.61-23.09-10.86-32.16-7.25-9.07-18.25-13.61-33-13.61Zm15.01,65.61c-3.51,4.67-8.55,7-15.11,7s-11.61-2.33-15.15-7c-3.55-4.69-5.32-11.31-5.32-19.88s1.77-15.18,5.32-19.85c3.55-4.64,8.6-6.96,15.15-6.95,6.55,0,11.59,2.32,15.11,6.95,3.52,4.65,5.28,11.26,5.27,19.85,0,8.59-1.76,15.21-5.27,19.88Z"/><path class="cls-1" d="m1036.03,478.44c-3.35-6.03-7.75-10.18-13.2-12.43-3.57-1.38-7.37-2.05-11.2-1.97-11.66-.02-20.66,4.31-27,13-6.34,8.69-9.51,19.4-9.51,32.14,0,13.22,3.3,23.7,9.88,31.44,6.58,7.74,15.38,11.61,26.4,11.61,7.13,0,12.93-1.7,17.39-5.11,2.84-2.27,5.19-5.08,6.93-8.27v5.51c0,8.19-.89,14.01-2.68,17.47-2.73,5.41-8.13,8.11-16.21,8.11-5.73,0-9.79-1.02-12.2-3.07-1.61-1.5-2.69-3.5-3.07-5.67h-24.39c.73,8.56,4.56,14.99,11.49,19.29,6.93,4.3,15.87,6.45,26.83,6.45,18.15,0,30.43-4.83,36.83-14.48,3.73-5.59,5.59-13.93,5.59-25v-81.37h-21.88v12.35Zm-5.56,49.07c-3.32,3.83-8.17,6-13.24,5.94-7.83,0-13.27-3.62-16.3-10.86-1.73-4.22-2.58-8.74-2.5-13.3-.14-4.96.66-9.9,2.35-14.56,2.97-7.39,8.38-11.09,16.22-11.09,5.33-.19,10.44,2.18,13.74,6.37,3.42,4.25,5.13,10.44,5.13,18.57,0,8.66-1.8,14.97-5.4,18.93Z"/><path class="cls-1" d="m1125.42,464.09c-6.71,0-12.17,1.76-16.36,5.27-2.57,2.1-5.59,6.01-9.06,11.73v-15h-21.39v85.8h22.59v-41c0-6.88.86-11.97,2.59-15.27,3.1-5.87,9.16-8.81,18.18-8.81.68,0,1.58.01,2.68.07s2.36.16,3.78.32v-23c-1-.05-1.64-.12-1.93-.12-.29-.02-.65-.04-1.08,0Z"/><path class="cls-1" d="m1213.13,545.97c-.74-1.07-1.18-3.07-1.34-6-.11-3.92-.16-7.19-.16-9.92v-39.35c0-10.34-3.67-17.37-11-21.09-7.82-3.84-16.43-5.76-25.14-5.59-14.49,0-24.71,3.78-30.67,11.33-3.75,4.83-5.85,10.99-6.32,18.5h21.68c.35-2.86,1.45-5.58,3.19-7.87,2.23-2.63,6.04-3.94,11.41-3.94,4.79,0,8.42.66,10.89,2,2.47,1.34,3.71,3.77,3.71,7.28,0,2.91-1.61,5.04-4.84,6.37-2.9,1.06-5.93,1.73-9,2l-7.7.95c-8.71,1.09-15.32,2.93-19.82,5.51-8.19,4.71-12.29,12.35-12.29,22.9,0,8.13,2.54,14.41,7.64,18.84,5.1,4.43,11.55,6.65,19.36,6.65,5.76.09,11.44-1.35,16.46-4.17,4-2.31,7.63-5.19,10.77-8.57.16,1.94.37,3.67.63,5.19.3,1.67.78,3.31,1.41,4.88h24.43v-3.31c-1.31-.55-2.45-1.45-3.3-2.59Zm-30.28-11.97c-3.97,2.79-8.7,4.27-13.55,4.25-2.84.08-5.62-.82-7.87-2.55-2.16-1.71-3.24-4.48-3.24-8.31-.21-3.93,1.85-7.63,5.3-9.52,2.09-1.21,5.53-2.23,10.31-3.07l5.11-.94c2.04-.35,4.05-.86,6-1.54,1.52-.58,2.97-1.3,4.35-2.16l.02,8.34c-.15,7.51-2.3,12.67-6.43,15.5Z"/><path class="cls-1" d="m1277.72,464.2c-6.44-.15-12.75,1.87-17.9,5.74-3.05,2.5-5.67,5.48-7.76,8.82v-12.67h-21.48v119.54h22.19v-44.7c1.95,3.14,4.41,5.93,7.29,8.26,4.53,3.41,10.24,5.12,17.11,5.12,10.77,0,19.57-3.97,26.41-11.89,6.84-7.92,10.26-19.43,10.26-34.54,0-14.33-3.5-25.19-10.5-32.59-6.55-7.2-15.88-11.24-25.62-11.09Zm8,64.04c-3.31,4.83-8.12,7.24-14.43,7.24-4.05.09-8.02-1.15-11.29-3.54-5.33-4.04-8-11.04-8-21,0-6.29.79-11.48,2.37-15.58,3.07-7.71,8.72-11.57,16.93-11.57,6.83,0,11.78,2.55,14.83,7.64,3.11,5.31,4.7,11.38,4.59,17.53-.02,8.03-1.69,14.45-5,19.28Z"/><path class="cls-1" d="m1401.93,474.99c-2.7-3.73-6.38-6.64-10.62-8.43-4.55-1.9-9.45-2.85-14.38-2.8-4.65,0-9.23,1.03-13.44,3-4.26,1.97-8.01,5.44-11.24,10.42v-40.92h-22.43v115.67h22.43v-46.49c-.01-7.33,1.51-13,4.56-17s7.52-6,13.4-6,9.56,2,11.56,6c1.57,2.84,2.35,6.57,2.35,11.19v52.24h22.9v-50.41c.12-5.54-.15-11.08-.79-16.58-.61-3.6-2.08-6.99-4.3-9.89Z"/><path class="cls-1" d="m1462.9,529.36l-18.74-63.27h-24.94l31.52,89.56c.15.63-.33,2.36-1.46,5.19s-2.35,4.7-3.66,5.59c-1.5.99-3.21,1.61-5,1.81-2.09.27-4.19.34-6.29.23l-2.83-.15-.04,17.97c2.43.16,4.22.28,5.43.28h4.81c9.92,0,16.54-1.95,19.85-5.86,3.31-3.91,7.81-13.99,13.49-30.26l29.41-84.36h-23.85l-17.7,63.27Z"/><polygon class="cls-1" points="409.3 102.86 525.69 102.86 525.69 421.57 607.15 421.57 607.15 102.86 723 102.86 723 34.28 409.3 34.28 409.3 102.86"/><path class="cls-1" d="m878.83,204.28c2.28,0,5.26.09,8.93.26s7.88.52,12.61,1.05v-76.72c-3.33-.17-5.44-.31-6.44-.4-.93-.08-2.14-.13-3.54-.13-22.44,0-40.66,5.87-54.66,17.61-8.58,7.01-18.65,20.06-30.21,39.14v-49.92h-71.47v286.4h75.41v-136.87c0-22.96,2.89-39.96,8.67-51,10.33-19.61,30.56-29.42,60.7-29.42Z"/><path class="cls-1" d="m1174.03,389.48c16.51-17.51,25.76-34.77,27.76-51.76h-76.45c-4.47,8.41-9.6,14.98-15.41,19.71-10.66,8.75-24.52,13.13-41.58,13.13-16.09,0-29.85-3.58-41.29-10.77-18.84-11.55-28.84-31.7-30-60.43h208.59c.35-24.73-.47-43.68-2.47-56.84-3.48-22.45-11.09-42.19-22.82-59.21-12.99-19.3-29.49-33.42-49.49-42.37-19.98-8.93-42.41-13.4-67.3-13.42-41.97,0-76.1,13.25-102.41,39.72-26.31,26.47-39.46,64.51-39.46,114.12,0,52.95,14.56,91.17,43.7,114.66,29.14,23.49,62.77,35.24,100.88,35.24,46.17,0,82.09-13.93,107.75-41.78Zm-155.16-183.85l-.02.03c10.58-10.91,25.47-16.37,44.66-16.39,17.61,0,32.41,5.15,44.41,15.44s18.67,25.38,20,45.25h-129c2.71-18.65,9.36-33.42,19.95-44.33Z"/><path class="cls-1" d="m1502.45,242.52c-3.49-22.45-11.09-42.19-22.82-59.21-12.99-19.3-29.49-33.42-49.49-42.37-19.97-8.93-42.43-13.4-67.37-13.42-41.97,0-76.11,13.25-102.41,39.72-26.3,26.47-39.45,64.51-39.45,114.12,0,52.95,14.57,91.17,43.7,114.66,29.13,23.49,62.76,35.24,100.88,35.24,46.17,0,82.09-13.93,107.74-41.78,16.51-17.51,25.77-34.77,27.77-51.76h-76.39c-4.46,8.41-9.6,14.98-15.42,19.71-10.66,8.75-24.52,13.13-41.58,13.13-16.09,0-29.85-3.58-41.28-10.77-18.84-11.55-28.84-31.7-30-60.43h208.58c.36-24.73-.46-43.68-2.46-56.84Zm-204.25,7.44c2.71-18.64,9.36-33.42,19.93-44.32,10.59-10.89,25.49-16.35,44.71-16.37,17.65,0,32.46,5.15,44.42,15.44s18.61,25.38,19.94,45.25h-129Z"/></svg>