<?xml version="1.0" encoding="utf-8"?>
<!-- Generator: Adobe Illustrator 27.5.0, SVG Export Plug-In . SVG Version: 6.00 Build 0)  -->
<svg version="1.1" id="Layer_1" xmlns="http://www.w3.org/2000/svg" xmlns:xlink="http://www.w3.org/1999/xlink" x="0px" y="0px"
	 viewBox="0 0 803.82 803.82" style="enable-background:new 0 0 803.82 803.82;" xml:space="preserve">
<style type="text/css">
	.st0{fill:#010101;}
</style>
<g id="TgKxEu_00000109008563245220911310000008149606984803181994_">
	<g>
		<path class="st0" d="M318.58,517.28c1.71,0,3.07,0,4.37,0c76.98,0,153.9,0,230.88,0c7.55,0,12.39,3.24,13.92,9.26
			c2.01,7.79-3.6,15.28-11.62,15.45c-4.48,0.12-8.97,0-14.1,0c9.79,12.15,13.39,25.25,10.03,39.93
			c-2.36,10.44-8.02,18.93-16.58,25.36c-17.34,13.15-41.35,11.68-57.34-3.24c-15.1-14.1-20.53-40.35-3.07-61.82
			c-32.03,0-63.88,0-96.21,0c8.61,10.62,12.51,22.59,10.5,36.04c-2.07,13.39-8.97,23.89-20.47,31.15
			c-17.4,10.97-39.76,8.61-54.62-5.9c-8.43-8.2-12.98-18.29-13.39-30.14c-0.47-11.68,3.36-21.94,11.21-31.44c-3.77,0-6.9,0-10.03,0
			c-10.44,0-15.99-7.9-12.45-17.81c4.78-13.33,9.61-26.66,14.39-39.99c0.41-1.18,0.77-2.36,1.36-4.07c-2.48,0-4.54,0-6.61,0
			c-8.02-0.12-13.69-4.9-15.16-12.74c-2.48-13.57-4.96-27.08-7.43-40.64c-6.72-36.45-13.39-72.97-20.11-109.42
			c-4.96-26.9-9.91-53.8-14.75-80.75c-0.41-2.24-1.42-3.36-3.54-4.25c-19.41-7.49-38.76-15.16-58.1-22.77
			c-6.66-2.65-10.38-8.38-10.03-15.04c0.41-6.37,4.9-12.09,11.38-13.33c2.95-0.53,6.49-0.35,9.32,0.71
			c22.83,8.73,45.6,17.76,68.37,26.72c5.66,2.24,8.85,6.49,9.97,12.45c8.55,46.72,17.16,93.44,25.72,140.15
			c5.31,28.79,10.62,57.63,15.81,86.42c0.41,2.12,1.06,2.83,3.3,2.83c59.99-0.06,119.98-0.06,179.97,0c16.22,0,32.38-0.06,48.61,0
			c2.12,0,3.13-0.47,3.83-2.71c16.87-52.85,33.8-105.71,50.73-158.56c0.3-0.88,0.47-1.83,0.71-2.95c-4.01-0.24-7.73-0.53-11.44-0.71
			c-34.1-1.42-68.19-2.83-102.28-4.31c-30.61-1.3-61.29-2.65-91.9-3.95c-20.59-0.88-41.23-1.83-61.82-2.77
			c-7.96-0.35-14.39-7.14-14.22-15.04c0.18-8.08,6.55-14.69,14.63-14.51c11.56,0.24,23.12,0.77,34.68,1.3
			c16.46,0.71,32.92,1.47,49.43,2.18c29.38,1.3,58.75,2.6,88.13,3.89c29.08,1.24,58.16,2.48,87.3,3.66
			c9.26,0.41,18.52,0.77,27.72,1.18c10.97,0.53,17.4,9.61,14.04,20.23c-9.2,29.02-18.58,57.98-27.84,86.95
			c-11.09,34.57-22.18,69.19-33.21,103.76c-2.71,8.44-7.37,11.86-16.22,11.86c-73.03,0-145.99,0.06-219.02-0.06
			c-2.71,0-3.83,0.88-4.66,3.3c-3.54,10.2-7.26,20.35-10.91,30.5C319.23,514.8,318.99,515.8,318.58,517.28z M528.46,571.72
			c0-10.85-8.79-19.7-19.64-19.76c-10.85-0.06-19.88,8.97-19.82,19.88c0,10.79,8.85,19.7,19.64,19.76
			C519.49,591.66,528.46,582.64,528.46,571.72z M365.12,571.72c0-10.74-8.91-19.7-19.7-19.82c-10.85-0.06-19.94,8.97-19.88,19.82
			c0.06,10.79,8.85,19.7,19.64,19.82C355.98,591.72,365.12,582.58,365.12,571.72z"/>
	</g>
</g>
</svg>
