<?xml version="1.0" encoding="utf-8"?>
<!-- Generator: Adobe Illustrator 27.5.0, SVG Export Plug-In . SVG Version: 6.00 Build 0)  -->
<svg version="1.1" id="Layer_1" xmlns="http://www.w3.org/2000/svg" xmlns:xlink="http://www.w3.org/1999/xlink" x="0px" y="0px"
	 viewBox="0 0 803.82 803.82" style="enable-background:new 0 0 803.82 803.82;" xml:space="preserve">
<style type="text/css">
	.st0{fill:#010101;}
</style>
<g id="Vl2oAl_00000101800878527407073190000002603101576786176156_">
	<g>
		<path class="st0" d="M475.57,625.79c0-56.98,0-113.36,0-170.4c25,0,49.8,0,74.74,0c0-25.4,0-50.13,0-75.33
			c-24.94,0-49.67,0-74.41,0c0-12.04-0.92-23.62,0.26-35c0.99-9.41,7.57-15.4,18.03-15.2c18.55,0.39,37.11,0.13,55.99,0.13
			c0-24.94,0-49.61,0-74.48c-0.33-0.13-0.72-0.39-1.12-0.39c-21.05,0.07-42.17-0.07-63.23,0.26c-16.32,0.26-30.46,6.84-43.09,16.58
			c-11.65,8.95-20.46,20.4-26.84,33.62c-6.97,14.41-10.66,29.67-10.66,45.79c0,9.34,0,18.68,0,28.42c-18.29,0-36.32,0-54.74,0
			c0,25.26,0,50.13,0,75.53c17.96,0,36.12,0,54.48,0c0,57.11,0,113.56,0,170.53c-1.78,0-3.36,0-4.93,0
			c-48.55,0-97.11,0.13-145.73-0.07c-18.82-0.07-35.07-7.57-48.95-20.07c-12.83-11.51-20.99-25.92-24.28-42.83
			c-0.79-4.01-1.25-8.22-1.25-12.3c-0.07-100.53-0.2-201.13,0.07-301.66c0.07-18.95,7.83-35.26,20.59-49.08
			c13.29-14.41,29.8-22.43,49.21-24.8c1.45-0.2,2.96-0.13,4.47-0.13c100.4,0,200.8-0.33,301.19,0.2
			c29.74,0.13,51.71,15.33,66.25,41.12c6.91,12.17,9.14,25.33,9.14,39.28c-0.13,98.16,0.2,196.32-0.26,294.55
			c-0.13,29.87-15.2,51.84-40.86,66.65c-11.84,6.78-24.74,9.41-38.36,9.28c-23.49-0.2-46.91-0.07-70.4-0.07
			C479.32,625.79,477.74,625.79,475.57,625.79z"/>
	</g>
</g>
</svg>
