<?xml version="1.0" encoding="utf-8"?>
<!-- Generator: Adobe Illustrator 27.5.0, SVG Export Plug-In . SVG Version: 6.00 Build 0)  -->
<svg version="1.1" id="Layer_1" xmlns="http://www.w3.org/2000/svg" xmlns:xlink="http://www.w3.org/1999/xlink" x="0px" y="0px"
	 viewBox="0 0 803.82 803.82" style="enable-background:new 0 0 803.82 803.82;" xml:space="preserve">
<style type="text/css">
	.st0{fill:#010101;}
</style>
<g id="mXav9l_00000077289900088010753270000016168479505694188698_">
	<g>
		<path class="st0" d="M177.11,380.83c0-36.85-0.13-73.71,0.07-110.56c0.07-14.48,0.66-29.02,4.67-43.11
			c10.46-36.72,34.09-59.89,70.61-69.23c14.15-3.62,28.63-4.01,43.11-4.01c70.35-0.13,140.77-0.13,211.12,0
			c15.47,0,31,0.46,46.07,4.8c36.26,10.6,58.97,34.62,68.25,71.6c2.63,10.4,3.49,20.99,3.55,31.72
			c0.07,79.5,0.13,159.06-0.07,238.56c-0.07,17.83-2.7,35.41-10.66,51.6c-13.43,27.31-34.95,44.42-64.16,51.53
			c-14.94,3.62-30.14,4.01-45.41,4.01c-69.63,0.07-139.25,0.13-208.81,0c-15.53,0-31.19-0.46-46.26-4.87
			c-36.06-10.6-58.64-34.55-67.92-71.34c-3.69-14.54-3.95-29.55-4.02-44.49C176.91,451.64,177.04,416.24,177.11,380.83
			C177.04,380.83,177.04,380.83,177.11,380.83z M400.07,548.97c0,0.39,0,0.86,0,1.25c26.72-0.92,53.5-1.51,80.22-2.83
			c13.43-0.66,26.39-4.48,38.3-10.99c27.31-15,41.79-39.09,45.61-69.76c1.84-15,2.44-30.27,2.5-45.41
			c0.13-35.21-0.4-70.48-0.72-105.69c-0.13-10.53-1.05-20.93-3.55-31.19c-8.09-33.3-28.04-55.54-60.48-65.88
			c-15.14-4.8-30.8-5.46-46.4-5.73c-26.06-0.46-52.19-0.53-78.25-0.46c-20.07,0-40.21-0.13-60.22,2.37
			c-15.14,1.91-29.42,6.52-42.12,15.27c-18.69,12.9-30.34,30.73-35.8,52.98c-3.42,13.95-4.15,28.17-4.34,42.38
			c-0.66,41.2-1.18,82.39,0.46,123.59c0.46,10.79,1.51,21.59,4.47,32.05c9.21,32.71,29.88,53.77,62.12,63.11
			c13.82,4.01,28.04,4.67,42.25,4.94C362.69,549.17,381.38,548.97,400.07,548.97z"/>
		<path class="st0" d="M400.67,242.83c17.9,0,35.87-0.26,53.77,0.07c12.31,0.26,24.74,0.53,36.79,3.88
			c24.28,6.71,38.3,23.1,42.64,47.78c1.78,10,2.5,20.34,2.57,30.54c0.26,37.12,0.26,74.23,0,111.35
			c-0.07,12.24-0.59,24.55-3.88,36.52c-6.45,23.56-21.78,37.38-44.95,42.58c-12.5,2.83-25.21,3.03-37.91,3.09
			c-34.42,0.13-68.84,0.2-103.26-0.13c-12.44-0.13-24.94-0.53-37.05-3.95c-24.48-6.91-38.17-23.63-42.51-48.57
			c-2.83-16.39-2.63-32.97-2.63-49.49c-0.07-29.68-0.07-59.36,0.2-89.04c0.13-12.83,0.46-25.73,3.82-38.3
			c6.65-25.07,23.1-39.22,47.91-43.76c14.81-2.7,29.81-2.57,44.82-2.7c13.23-0.13,26.46,0,39.62,0
			C400.67,242.76,400.67,242.83,400.67,242.83z M485.96,380.96c-0.07-47.91-38.17-86.67-85.29-86.74
			c-47.51-0.07-85.49,38.7-85.55,87.2c0,47.19,38.63,86.08,85.49,85.95C447.72,467.3,486.02,428.48,485.96,380.96z M489.38,270.8
			c-10.99-0.13-20.01,8.62-20.27,19.74c-0.26,11.19,8.62,20.53,19.61,20.8c10.99,0.2,20.2-8.82,20.4-20.01
			C509.32,280.07,500.5,270.93,489.38,270.8z"/>
		<path class="st0" d="M456.01,380.83c-0.33,31.59-25.14,56.4-56.14,56.07c-30.47-0.26-55.67-26.06-54.69-58.04
			c0.99-31.06,26.65-54.82,56.33-54.29C431.6,325.15,456.28,350.43,456.01,380.83z"/>
	</g>
</g>
</svg>
