<?xml version="1.0" encoding="utf-8"?>
<!-- Generator: Adobe Illustrator 27.5.0, SVG Export Plug-In . SVG Version: 6.00 Build 0)  -->
<svg version="1.1" id="Layer_1" xmlns="http://www.w3.org/2000/svg" xmlns:xlink="http://www.w3.org/1999/xlink" x="0px" y="0px"
	 viewBox="0 0 1247.3 954.1" style="enable-background:new 0 0 1247.3 954.1;" xml:space="preserve">
<style type="text/css">
	.st0{fill:#010101;}
	.st1{font-family:'Avenir-HeavyOblique';}
	.st2{font-size:129.2045px;}
	.st3{font-family:'Avenir-Medium';}
	.st4{font-size:85.0228px;}
</style>
<text transform="matrix(0.7929 0 0 1 824.834 508.7911)" class="st0 st1 st2">’22</text>
<text transform="matrix(1.2173 0 0 1 243.1499 368.1192)" class="st0 st3 st4">OUTDOOR CO.</text>
<path class="st0" d="M120.3,74.7c-0.2,9-0.1,18.1-0.6,27c-1.5,25.6-4.6,51.3-4.4,76.9c0.2,24.2,3.8,48.4,5.8,72.6
	c1,12.4,1.6,24.8,1,37.4c-2.4-24.6-4.8-49.1-7.2-73.7c-0.5,0-1.1,0-1.7-0.1c-0.4,1.7-1.1,3.3-1,4.9c0.7,26.9,1.4,53.7,2.2,80.6
	c0,0.2-0.1,0.5,0,0.7c7.2,12.4,2.2,26.3,4.9,39.3c1.4,6.6,3,12.1,10.1,14.6c3.7,1.3,6.9,4,10.6,5.3c15.2,5.3,21.2,2.9,25.3-12.4
	c6.5-23.5,12.7-47.2,14-71.9c0.5-8.6,1.7-17.2,3.3-25.7c0.8-4.3,3.9-8.2,5.1-12.5c2.2-7.6,4.2-15.3,5.4-23
	c1.4-9.2,1.7-18.6,2.7-27.8c0.2-1.8,1.5-3.5,2.4-5.3c1.8,1.3,4.4,2.4,5.1,4.1c1.5,4.1,2.6,8.6,2.7,12.9c0.8,31.3,0.2,62.7,2,94
	c3.1,51.8,7.2,103.4,12,155.1c1.4,15.6,5.8,31,9.2,46.4c4.5,19.9,15.8,35.6,31.9,47.8c3,2.3,7,3.4,10.4,5.6
	c-11.1,1.8-20-4.3-29.7-9.1c2.5-0.4,4.9-0.8,7.4-1.2c-19.2-1.5-37.9-8.2-59.4-5c2.9,2.4,4.8,4.8,7.2,5.6c4.8,1.5,10,2.2,15,3
	c9.1,1.6,18.1,2.8,26.5,7.8c5.1,3,13.5,0.3,18.5,3.3c5,3.1,8.1,9.2,15.3,9.3c6.7,0,13.3,0.3,20,0.9c2.3,0.2,4.5,1.8,7,2.8
	c-0.1-1.1-0.2-2.4-0.4-5.2c8.4,4.5,16,8.8,23.8,12.8c22.4,11.5,45.2,21.8,70.4,26.4c6.4,1.2,12.8,5.6,17.9,10
	c10.5,9.1,28.1,6.2,33.7-6.4c1.1-2.4,1-5.5,0.6-8.2c-1.5-9.8,3.5-17.3,8.4-24.9c1.7-2.7,2.1-6.3,3.1-9.4c-0.8-0.3-1.6-0.6-2.3-0.8
	c-0.9,1.8-1.8,3.7-2.6,5.2c-6-13.9-6.5-28.5-5.8-43.4c0.3-7-0.9-14-9.4-17c-1.5-0.5-3-5.3-2.2-7.1c1.6-3.7,4.5-1.8,6.7,0.3
	c1.2,1.1,2.4,2.2,3.1,2.8c4-3.2,7.9-5.7,11.1-9.1c2.1-2.3,3.6-5.5,4.4-8.5c3.1-11.1,5.9-22.3,8.8-33.5c0.7,0.1,1.5,0.3,2.2,0.5
	c-1.5,11.4-3,22.9-4.7,35.4c7.3-3,8.6-7.2,7.8-13.2c-0.5-3.2,0.4-6.6,0.9-9.8c1.1-5.9,2.6-11.8,3.4-17.7c0.2-1.5-1.7-3.3-2.3-4.3
	c2.6-10.6,5.1-21.2,7.7-31.9c0.4-0.2,0.8-0.4,1.2-0.6c1.5,8,4.2,16,4.2,24.1c-0.2,23.1-2.9,46.2-2.1,69.3
	c1.2,32.4,4.6,64.7,7.1,97.2c0.1,1.8,0.8,3.8,0.4,5.5c-4.8,22.4,3.6,42.9,9.4,63.6c2,7.2,6.3,14.1,10.7,20.3
	c8.2,11.6,2.5,29.2-8.2,36.4c-3.6,2.4-9.4,1.7-13.3,3.3c-4.9,3.4-9.7,7.3-14.9,10.2c-6.6,3.6-11.5,7.8-12.2,17.5c-3.3-1.9-6-3-8-4.8
	c-16.2-14.6-31.9-29.5-48.3-43.8c-13.3-11.6-27.1-22.9-41.2-33.6c-8.8-6.7-19.2-10.8-30.7-10.1c-6.3,0.4-11.3-1.5-15.8-5.9
	c-4.8-4.8-10.5-8.8-14.8-13.9c-12.2-14.7-29-22.9-46.2-27.7c-14.6-4-24.8-15.8-40.2-17.7c-15-1.9-29.5-7-44.2-10.5
	c-14.5-3.5-29.2-6.3-43.6-10.1c-14.6-3.8-29.1-8.3-43.6-12.9c-4.9-1.6-9-1.2-13.2,1.8c-5.5,3.9-11.4,7.3-17,11.2
	c-4.6,3.2-9.1,3.1-13.7,0.4c-0.8-0.5-1.6-1.1-2.4-1.4c-14.8-6-13.9-19-13.8-31.4c0-2.4,2-6.3,3.9-6.9c6.1-2,8.9-6.7,11.2-11.8
	c3.9-8.5,11.3-13.7,17.2-20.3c11.3-12.8,24.6-24.1,32.2-40.3c5.5-11.7,13.6-22.3,20.4-33.4c3.7-6,7.2-12.2,10.8-18.4
	c-0.6-0.5-1.3-1-2-1.4c-11.7,14-23.4,28-35.8,42.9c-0.7-2.4-1.6-4.6-2-6.8c-4.7-23.6-9.2-47.2-14-70.8c-2.2-10.7-6.3-20.5-13.4-28.9
	c-5.7-6.8-5.1-8.7,2.5-12.9c6.5-3.6,7.9-9.6,7.8-16.1c-0.2-14.7-1.1-29.4-1-44.2c0.1-24.5,0.6-49.1,1.4-73.6c0.3-10,1.9-20,3-30.4
	c5.9,2.1,7.3-1.2,8.2-6.1c0.7-4.2,2.4-8.3,3.7-12.4c1.9-6.2,4-12.4,5.8-18.7c1.8-6.3,3.5-12.6,5-18.9c3.7-15.7,11.1-29.1,23.4-39.7
	C118.4,74.7,119.4,74.7,120.3,74.7z M226.1,526.8c-0.7-3.6-0.9-6.4-1.7-9c-0.8-2.5-2.2-4.6-3.4-6.9c-0.5,0.3-1,0.6-1.5,0.9
	c-0.1,1.3-0.3,2.7-0.5,5.4c-3.9-4.6-7-8.1-10.1-11.8c-7.8,11.3-7.8,11.3-12.9,7c2.6-0.5,4.8-1.1,7.9-1.7c-3-1.9-5.4-3.3-7.8-4.8
	c6.3-8-3.2-10.2-5.6-14.7c-0.7-1.3-6.2-0.2-10.6-0.2c-3.2-16.3-6.9-34.5-10.8-53.9c-5.8,8.1-11,16-16.8,23.4
	c-5.9,7.4-8.5,13.8-4.8,24.4c5.7,16.5,15.2,26.7,31.9,30.8c7.2,1.8,14.2,4.4,21.4,6.4c4.2,1.2,8.7,1.8,13,2.6
	C217.5,526.9,220.9,530.6,226.1,526.8z M137.6,432c19.1-28.1,37.5-56,61.5-79.6c-4.2-2.5-7.3,0.2-10.1,3.5c-6.7,8-13.4,16.2-20,24.3
	c-5.2,6.5-10.3,13-15.8,20c-9.2-7.7-17.6-14.8-26-21.9c-0.6,0.3-1.3,0.7-1.9,1c0.9,8.4,1.9,16.7,2.7,24.6
	C147,407.9,136.8,421.4,137.6,432z M137.3,521.1c7.7,6.3,34.5,11.7,40.1,8.1c-0.5-1.2-0.5-3-1.5-3.6c-5.8-4.2-11.7-8.1-17.8-11.9
	c-0.7-0.4-3.1,0.6-3.3,1.3c-2.3,7.5-7.5,6.9-13.4,5.4C140.3,520.1,139,520.8,137.3,521.1z M472.7,486.7c-0.5-0.2-1.2-0.5-1.7-0.7
	c-8.3,14-8.3,14-6,20.3C467.9,498.6,470.3,492.7,472.7,486.7z"/>
<path class="st0" d="M39,490.5c-2.1-10.6-3.8-19.4-5.5-28.3c-7.4-38.5-15.8-76.8-21.8-115.5c-4.9-31.5-4.8-63.3,4.7-94.3
	c0.8-2.8,2.6-5.2,4.7-9.3c12.3,19.4,12.5,40.5,18,60.2c-0.7-10.6-1.4-21.2-2.1-31.8c0.5,0,1.1-0.1,1.7-0.2
	c0.8,7.8,2.5,15.6,2.2,23.3c-0.9,32.6,10,62.9,17,94c3.3,14.5,6,29.2,9.4,43.8c1.1,4.7,3.3,9.1,4.3,12c5,1.2,8.5,2,12,2.9
	c0,0.8-0.1,1.7-0.1,2.5c-3.4,0.7-6.8,1.4-11.5,2.4c1.3,3.7,2.2,7.4,4.1,10.6c2,3.4,1.5,5.4-1.3,7.7c-4.5,3.8-7.2,10-14.1,10.6
	c-0.9,0.1-1.9,0.9-2.7,0.7C50.2,479.5,44.6,483.2,39,490.5z"/>
<path class="st0" d="M1128,73.1c12.3,10.5,19.7,24,23.4,39.7c1.5,6.4,3.2,12.7,5,18.9c1.8,6.2,3.9,12.4,5.8,18.7
	c1.3,4.1,3,8.1,3.7,12.4c0.9,4.9,2.3,8.2,8.2,6.1c1.1,10.4,2.6,20.4,3,30.4c0.8,24.5,1.3,49.1,1.4,73.6c0.1,14.7-0.7,29.4-1,44.2
	c-0.1,6.5,1.3,12.6,7.8,16.1c7.6,4.2,8.2,6.2,2.5,12.9c-7.1,8.5-11.3,18.3-13.4,28.9c-4.8,23.5-9.3,47.2-14,70.8
	c-0.5,2.3-1.3,4.4-2,6.8c-12.4-14.9-24.1-28.9-35.8-42.9c-0.7,0.5-1.3,1-2,1.4c3.6,6.1,7.1,12.3,10.8,18.4
	c6.8,11.1,14.9,21.7,20.4,33.4c7.6,16.2,20.9,27.4,32.2,40.3c5.9,6.7,13.2,11.9,17.2,20.3c2.4,5,5.1,9.8,11.2,11.8
	c1.9,0.6,3.8,4.5,3.9,6.9c0.1,12.4,1,25.4-13.8,31.4c-0.9,0.3-1.6,0.9-2.4,1.4c-4.7,2.8-9.1,2.9-13.7-0.4
	c-5.5-3.9-11.4-7.3-16.9-11.2c-4.2-3-8.3-3.3-13.2-1.8c-14.4,4.6-29,9.1-43.6,12.9c-14.4,3.8-29.1,6.7-43.6,10.1
	c-14.8,3.5-29.3,8.6-44.2,10.5c-15.4,1.9-25.6,13.7-40.2,17.7c-17.2,4.7-34,13-46.2,27.7c-4.3,5.2-10,9.1-14.8,13.9
	c-4.4,4.4-9.4,6.3-15.8,5.9c-11.5-0.7-21.8,3.4-30.7,10.1c-14.1,10.7-27.8,22-41.2,33.6c-16.4,14.3-32.1,29.3-48.3,43.8
	c-2,1.8-4.7,2.9-8,4.8c-0.7-9.6-5.7-13.9-12.2-17.5c-5.3-2.9-9.9-6.7-14.9-10.2c-3.9-1.6-9.7-0.8-13.3-3.3
	c-10.7-7.2-16.4-24.8-8.2-36.4c4.4-6.2,8.7-13.1,10.7-20.3c5.9-20.7,14.3-41.2,9.4-63.6c-0.4-1.8,0.3-3.7,0.4-5.5
	c2.5-32.4,6-64.7,7.1-97.2c0.8-23-1.9-46.2-2.1-69.3c-0.1-8,2.7-16,4.2-24.1c0.4,0.2,0.8,0.4,1.2,0.6c2.6,10.6,5.1,21.2,7.7,31.9
	c-0.6,1-2.4,2.8-2.3,4.3c0.8,6,2.3,11.8,3.4,17.7c0.6,3.2,1.4,6.7,0.9,9.8c-0.8,6,0.5,10.3,7.8,13.2c-1.7-12.5-3.2-23.9-4.7-35.4
	c0.7-0.1,1.5-0.3,2.2-0.5c2.9,11.2,5.6,22.4,8.8,33.5c0.8,3,2.3,6.2,4.4,8.5c3.1,3.3,7.1,5.9,11.1,9.1c0.7-0.6,1.9-1.7,3.1-2.8
	c2.2-2,5.1-4,6.7-0.3c0.8,1.8-0.7,6.6-2.2,7.1c-8.5,3-9.7,10-9.4,17c0.7,14.9,0.1,29.5-5.8,43.4c-0.7-1.5-1.7-3.3-2.6-5.2
	c-0.8,0.3-1.6,0.6-2.3,0.8c1,3.2,1.4,6.7,3.1,9.4c4.9,7.7,9.8,15.1,8.4,24.9c-0.4,2.7-0.4,5.8,0.6,8.2c5.6,12.7,23.1,15.5,33.7,6.4
	c5.1-4.4,11.6-8.9,17.9-10c25.2-4.6,47.9-14.9,70.4-26.4c7.8-4,15.4-8.3,23.8-12.8c-0.2,2.7-0.3,4.1-0.4,5.2c2.5-1.1,4.7-2.6,7-2.8
	c6.7-0.6,13.3-0.8,20-0.9c7.2,0,10.3-6.1,15.3-9.3c4.9-3.1,13.4-0.4,18.5-3.3c8.4-5,17.4-6.2,26.6-7.8c5.1-0.9,10.2-1.5,15.1-3
	c2.4-0.7,4.3-3.3,7.2-5.6c-21.5-3.1-40.2,3.5-59.4,5c2.4,0.4,4.9,0.8,7.4,1.2c-9.7,4.8-18.6,10.9-29.7,9.1c3.4-2.2,7.3-3.3,10.4-5.6
	c16-12.3,27.4-27.9,31.9-47.8c3.5-15.4,7.8-30.8,9.2-46.4c4.7-51.6,8.9-103.3,12-155.1c1.8-31.3,1.3-62.6,2-94
	c0.1-4.3,1.2-8.8,2.7-12.9c0.6-1.8,3.3-2.7,5.1-4.1c0.8,1.8,2.2,3.4,2.4,5.3c1,9.3,1.3,18.6,2.7,27.8c1.2,7.8,3.2,15.5,5.4,23
	c1.2,4.3,4.2,8.1,5.1,12.5c1.7,8.5,2.9,17.1,3.3,25.7c1.3,24.7,7.5,48.3,14,71.9c4.2,15.3,10.2,17.7,25.3,12.4
	c3.7-1.3,6.9-3.9,10.6-5.3c7.1-2.5,8.7-8.1,10.1-14.6c2.7-13-2.2-27,4.9-39.3c0.1-0.2,0-0.5,0.1-0.7c0.7-26.9,1.5-53.7,2.2-80.6
	c0.1-1.6-0.7-3.3-1-4.9c-0.6,0-1.2,0-1.7,0.1c-2.4,24.6-4.8,49.1-7.2,73.7c-0.6-12.5,0.1-24.9,1-37.4c1.9-24.2,5.6-48.4,5.8-72.6
	c0.2-25.6-3-51.3-4.4-76.9c-0.5-9-0.4-18-0.6-27C1126.1,73.1,1127,73.1,1128,73.1z M1031.8,522.9c4.3-0.9,8.7-1.5,13-2.6
	c7.2-1.9,14.2-4.5,21.4-6.4c16.7-4.2,26.1-14.4,31.9-30.8c3.7-10.5,1.1-17-4.8-24.4c-5.8-7.4-11-15.3-16.8-23.4
	c-3.9,19.4-7.5,37.6-10.8,53.9c-4.4,0-9.9-1.2-10.6,0.2c-2.4,4.6-11.9,6.7-5.6,14.7c-2.4,1.5-4.7,3-7.8,4.8c3.1,0.7,5.3,1.1,7.9,1.7
	c-5.1,4.3-5.1,4.3-12.9-7c-3.2,3.7-6.2,7.2-10.1,11.8c-0.3-2.7-0.4-4-0.5-5.4c-0.5-0.3-1-0.6-1.5-0.9c-1.2,2.3-2.6,4.5-3.4,6.9
	c-0.8,2.6-1.1,5.5-1.7,9C1024.6,529.1,1028,525.4,1031.8,522.9z M1117.5,402.3c0.9-7.9,1.8-16.3,2.7-24.6c-0.7-0.3-1.3-0.7-1.9-1
	c-8.4,7.1-16.9,14.2-26.1,21.9c-5.4-6.9-10.5-13.5-15.8-20c-6.6-8.2-13.2-16.3-20-24.3c-2.8-3.3-6-6-10.1-3.5
	c23.9,23.6,42.3,51.4,61.5,79.6C1108.7,419.9,1098.4,406.4,1117.5,402.3z M1104,518.9c-5.9,1.5-11.1,2.2-13.4-5.4
	c-0.2-0.7-2.7-1.7-3.3-1.3c-6.1,3.8-12,7.8-17.8,11.9c-0.9,0.7-1,2.5-1.5,3.6c5.6,3.6,32.5-1.8,40.1-8.1
	C1106.5,519.2,1105.1,518.6,1104,518.9z M780.5,504.8c2.3-6.2,2.3-6.2-6.1-20.3c-0.6,0.2-1.2,0.5-1.7,0.7
	C775.2,491.1,777.5,497.1,780.5,504.8z"/>
<path class="st0" d="M1206.4,488.9c2.1-10.6,3.8-19.4,5.5-28.3c7.4-38.5,15.8-76.8,21.8-115.5c4.9-31.5,4.8-63.3-4.7-94.3
	c-0.8-2.8-2.6-5.2-4.7-9.3c-12.3,19.4-12.5,40.5-18,60.2c0.7-10.6,1.4-21.2,2.1-31.8c-0.6,0-1.2-0.1-1.7-0.2
	c-0.8,7.8-2.4,15.6-2.2,23.3c0.9,32.6-10,62.9-16.9,94c-3.3,14.5-6.1,29.2-9.4,43.8c-1.1,4.7-3.3,9.1-4.3,12c-5,1.2-8.5,2-12,2.9
	c0.1,0.8,0.1,1.7,0.1,2.5c3.4,0.7,6.8,1.4,11.6,2.4c-1.3,3.7-2.2,7.4-4.1,10.6c-2,3.4-1.5,5.4,1.3,7.7c4.5,3.8,7.2,10,14.1,10.6
	c0.9,0.1,1.9,0.9,2.7,0.7C1195.3,477.9,1200.9,481.6,1206.4,488.9z"/>
<path class="st0" d="M263.5,12.1c1.3-0.1,2.1-0.2,2.8-0.2c58.2,0,116.5,0,174.8,0c14.8,0,25.8,7.1,34.2,18.8
	c7.2,10.1,10.8,21.5,13.8,33.4c3.5,14.1,4.7,28.3,3.7,42.8c-0.8,12.2-3.4,24.1-7.3,35.8c-3.4,10-8.2,19-15.4,26.6
	c-7.2,7.5-16.1,11.6-26.4,12.5c-0.9,0.1-1.7,0.3-3.8,0.7c17.6,28.8,35,57.1,52.8,86.3c-2.7,0.1-4.2,0.3-5.5,0.3
	c-16.2,0-32.4-0.1-48.5,0.1c-3.7,0-5.6-1.2-7.5-4.4c-16.7-28.7-33.6-57.2-50.5-85.8c-10.9-18.6-21.8-37.2-32.7-55.9
	c-0.2-0.4-0.3-0.8-0.6-1.9c1.8-0.1,3.5-0.4,5.1-0.4c25.7,0,51.5,0,77.2,0c6,0,8.8-2.2,9.5-8.3c0.8-6.9,1.7-13.9,1.6-20.9
	c0-4.2-1.8-8.4-2.9-12.6c-1.2-4.6-4.7-5.5-8.8-5.5c-10.6,0-21.2,0-31.8,0c-26.3,0-52.7,0-79,0c-6.3,0-6.8,0.6-6.8,6.7
	c0,60.6,0,121.3,0,182c0,8.5-0.7,6.8-7,6.8c-11.3,0-22.6,0-34,0c-7,0-7,1.2-7-6.8c0-42.4,0-84.9,0-127.3c0-39.1,0-78.1,0-117.2
	C263.5,16,263.5,14.3,263.5,12.1z"/>
<path class="st0" d="M596.1,120.8c27.9,0,54.9,0,82.6,0c0-3.7,0-7,0-10.3c0-5.1-0.6-10.3,0.1-15.4c1.7-11.9-5.6-17.8-14.7-22
	c-10.5-4.8-21.8-7.2-33.3-7.6c-8.5-0.3-17.1-0.7-25.5,0.2c-13.6,1.6-27.3,3.6-38.6,12.9c-4.3,3.6-6.4,7.7-6.4,13.5
	c0.2,56.8,0.1,113.7,0.1,170.5c0,6.4,0,6.4-6.6,6.4c-13.5,0-27,0-41,0c-0.1-1.8-0.4-3.3-0.4-4.9c0-66.8-0.1-133.6,0.1-200.5
	c0-11.5,5.4-21.2,13.7-29c11.6-11,26-17,41.3-21.1c18.5-4.9,37.2-7.7,56.2-7c10,0.4,20,2.3,30,3.3c12.7,1.2,24.7,5,36.3,9.9
	C705,25.9,717.4,34.9,724,50c1.6,3.7,2.4,7.9,2.4,11.9c0.1,67.4,0.1,134.8,0.2,202.2c0,3.8-1,5.1-5,5c-12.5-0.2-25-0.3-37.5,0
	c-4.4,0.1-5.4-1.5-5.4-5.6c0.1-25.4,0-50.8,0.1-76.2c0.1-3.9-1-5.4-5.2-5.3c-11.6,0.3-23.2,0-34.9,0.2c-4.1,0.1-6.6-1-8.8-4.7
	C619,158.8,607.8,140.3,596.1,120.8z"/>
<path class="st0" d="M743.1,12c3.1,0,5.3,0,7.4,0c16.5,0,32.9,0,49.4,0c1.9,0,3.5-0.1,5,2.3c16.9,26.1,33.9,51.9,51,77.8
	c0.2,0.4,0.6,0.7,1.4,1.5c2.1-2.7,4.2-5.1,6-7.7c12.1-18.3,24-36.7,36-55.1c3.5-5.3,6.7-10.8,10.3-16c0.8-1.2,2.6-2.6,4-2.6
	c18.8-0.2,37.6-0.1,57.7-0.1c-1.9,3.2-3.4,5.8-5.1,8.3c-16.8,25.4-33.7,50.6-50.5,76c-8.9,13.4-17.7,26.9-26.3,40.5
	c-1,1.6-1,4.8,0.1,6.3c14.7,22.5,29.7,44.9,44.4,67.4c12,18.2,23.7,36.7,35.6,55c1.8,2.7,1.2,3.6-1.8,3.6c-17.5,0-35,0-52.5-0.1
	c-1.4,0-3.3-1.2-4.1-2.4c-8.7-12.8-17.3-25.8-25.9-38.8c-8.4-12.8-16.8-25.5-25.1-38.3c-2.1-3.2-3.7-2.6-5.4,0
	c-16.2,24.9-32.5,49.9-48.6,74.8c-2,3.1-4.4,4.8-8.5,4.8c-16.3-0.3-32.7-0.1-49-0.1c-1.4,0-2.9,0-5.4,0c3.7-5.8,6.7-10.7,9.9-15.6
	c13.5-20.7,27-41.5,40.6-62.2c10.5-16.1,21.2-32.2,31.8-48.2c1.6-2.4,1.5-4.1-0.1-6.4c-13.5-20.2-26.8-40.5-40.2-60.9
	C771.4,54.8,757.6,33.9,743.1,12z"/>
<g id="_x35_GH9HG_00000025440630511356370430000002681665449215851181_">
	<g>
		<path class="st0" d="M16.4,938.2c14.8-11.5,29.6-23,44.5-34.4c69.6-53.2,139.3-106.5,209-159.7c11-8.4,10.9-8.5,20.6,1.3
			c23.3,23.6,46.6,47.3,69.9,70.9c8.2,8.4,8.3,8.4,16.7-0.2c67.7-69.5,135.3-139,202.9-208.5c14.4-14.8,28.9-29.5,43.1-44.3
			c2.5-2.5,4-5.8,6.8-10.2c80.3,101.8,158.2,200.4,237.5,300.9c9.3-12.9,17.3-23.8,25.1-34.8c16.3-23.1,32.6-46.3,48.9-69.4
			c6.9-9.7,7.6-9.7,15.8-1.4c62.9,64.2,125.9,128.4,188.8,192.7c1.6,1.7,2.7,3.7,5.2,7.2c-12.5-2.3-21.6-5.4-29.2-12.9
			c-46.6-46.1-93.4-91.9-140.1-137.8c-3.4-3.4-6.2-7.2-10.5-12.4c-15.5,40.6-12,79.7-12.7,118.3c-1,0.1-2,0.2-3.1,0.4
			c-14.3-21.4-28.5-42.8-43.8-65.6c-11,12.9-20.6,23.6-29.3,34.8c-1.6,2-0.5,6.4,0.5,9.4c1.5,4.8,3.9,9.2,6,13.8c-1,0.5-2,1-3,1.5
			C808.2,806.4,730.1,715.2,652.1,624c-0.9,0.3-1.9,0.7-2.8,1c-1.8,8.6-4.2,17.2-5.5,25.9c-1.1,7.3-4.4,9.4-12.2,7.6
			c-19.8-4.7-19.8-4.5-29.9,12.3c-1,1.6-1.7,3.4-3,4.8c-6.6,7.5-4,12.4,3.6,18.4c41.8,32.7,83.1,65.9,124.6,99
			c1.7,1.3,3.1,3,3.9,6.5c-2.7-0.7-5.7-1.1-8.1-2.3c-38.2-19-76.3-38-114.3-57.3c-6.7-3.4-12-3.3-18.6,0
			c-35.8,17.8-72.4,34.3-107.5,53.2c-17.5,9.4-32.7,22.6-48.4,34.6c-7.7,5.9-14.6,11.8-25.6,10.8c-6.5-0.6-7.3,2.9-4.8,7.8
			c5.4,10.6,10.8,21.2,16.2,31.9c-0.8,0.7-1.5,1.3-2.3,1.9c-41.4-33.4-82.8-66.9-125.5-101.4c-3.6,4.9-7.8,9-9.8,13.9
			c-9.1,21.6-26.1,34.2-49.8,40.8c-11.4,3.2-11.2,4.7-5.1,13.6c15.9,23,31.9,46,47.7,69c1.3,1.9,2,4.2,1.2,7.7
			c-9.5-5.9-19.1-11.8-28.6-17.8c-7.2-4.6-14.9-8.7-21.4-14c-10-8.2-20.3-9.5-33.2-6.3c-31.8,8-64.4,13.2-95.7,22.4
			c-21.6,6.3-41.5,17.5-62.1,26.4c-5.5,2.4-11,4.8-16.6,7.2C17.6,940.5,17,939.4,16.4,938.2z"/>
	</g>
</g>
<text transform="matrix(0.7929 0 0 1 258.7754 506.4864)" class="st0 st1 st2">Est</text>
</svg>
