<?xml version="1.0" standalone="no"?>
<!DOCTYPE svg PUBLIC "-//W3C//DTD SVG 20010904//EN"
 "http://www.w3.org/TR/2001/REC-SVG-20010904/DTD/svg10.dtd">
<svg version="1.0" xmlns="http://www.w3.org/2000/svg"
 width="1247.000000pt" height="1247.000000pt" viewBox="0 0 1247.000000 1247.000000"
 preserveAspectRatio="xMidYMid meet">
<metadata>
Created by potrace 1.14, written by Peter Selinger 2001-2017
</metadata>
<g transform="translate(0.000000,1247.000000) scale(0.100000,-0.100000)"
fill="#000000" stroke="none">
<path d="M6046 10943 c-1 -1 -24 -5 -52 -8 -59 -6 -132 -16 -159 -22 -11 -3
-38 -8 -60 -13 -57 -12 -183 -47 -195 -55 -5 -3 -19 -8 -30 -10 -71 -14 -231
-112 -300 -186 -64 -67 -68 -73 -98 -137 l-26 -57 -2 -1055 c-1 -580 1 -1061
4 -1068 6 -17 458 -17 468 0 11 17 11 161 1 176 -5 6 -6 12 -1 12 5 0 8 208 7
472 -3 560 -3 455 -3 683 0 105 0 197 0 205 0 8 1 33 3 55 2 22 -1 46 -6 53
-5 6 -6 12 -1 12 5 0 9 28 8 62 -1 91 14 124 83 178 29 23 103 62 103 54 0 -3
6 -2 13 5 14 11 108 35 187 47 56 8 349 10 410 2 122 -16 273 -74 329 -126 53
-50 58 -72 56 -252 l-1 -165 -408 -2 c-224 -1 -410 -3 -412 -6 -3 -3 1 -11 8
-19 18 -19 48 -69 55 -90 3 -10 9 -18 14 -18 5 0 9 -5 9 -11 0 -7 18 -41 41
-76 22 -35 52 -85 66 -111 14 -26 31 -50 37 -54 6 -4 8 -8 4 -8 -4 0 15 -36
42 -80 28 -44 50 -82 50 -85 0 -25 84 -73 95 -55 4 6 14 7 23 2 15 -7 38 -8
52 -2 14 5 50 6 50 1 0 -3 11 -6 25 -6 14 0 25 4 25 8 0 5 5 5 12 1 15 -9 118
-12 118 -3 0 10 82 -8 89 -20 4 -6 7 -194 7 -418 -1 -324 2 -409 12 -420 10
-10 64 -13 233 -13 219 0 220 0 227 23 5 12 7 490 6 1062 -2 932 -4 1045 -18
1085 -41 110 -142 219 -264 283 -40 21 -72 34 -72 30 0 -4 -4 -3 -8 3 -6 9
-94 46 -142 59 -126 35 -150 39 -248 50 -26 3 -83 10 -127 16 -69 10 -332 19
-339 12z"/>
<path d="M2647 10888 c-16 -10 -18 -2545 -2 -2558 16 -14 445 -14 458 -1 8 8
11 297 12 964 0 713 3 957 12 968 10 12 105 14 600 14 323 -1 598 -5 611 -9
22 -7 48 -56 54 -99 2 -12 6 -26 9 -32 7 -12 4 -130 -5 -205 -9 -72 -23 -105
-49 -117 -14 -6 -185 -11 -439 -11 -230 0 -422 -3 -428 -7 -7 -4 -4 -16 8 -33
10 -15 22 -34 26 -42 4 -8 17 -32 29 -52 48 -80 253 -430 267 -456 8 -15 18
-28 23 -30 4 -2 7 -7 7 -12 0 -5 47 -88 105 -185 58 -97 105 -179 105 -182 0
-2 14 -24 30 -48 17 -24 30 -48 30 -54 0 -6 5 -11 10 -11 6 0 10 -4 10 -9 0
-10 142 -257 158 -277 5 -6 13 -20 16 -31 16 -51 34 -54 335 -51 l280 3 -17
35 c-10 19 -39 68 -65 108 -26 40 -47 75 -47 78 0 3 -18 32 -40 65 -22 33 -40
63 -40 65 0 3 -18 32 -40 65 -22 33 -40 63 -40 65 0 3 -18 32 -40 65 -23 32
-37 59 -33 59 4 0 3 4 -3 8 -13 9 -156 242 -149 243 3 1 10 3 15 4 6 1 11 3
13 5 1 1 16 4 32 6 151 23 287 141 359 311 28 68 72 213 80 263 3 19 8 46 12
60 3 14 7 99 9 190 2 140 -1 182 -20 276 -26 126 -74 274 -104 325 -11 19 -25
45 -31 57 -6 13 -39 52 -73 87 -88 88 -151 115 -282 122 -162 8 -1756 9 -1768
1z"/>
<path d="M7470 10831 c22 -33 40 -65 40 -71 0 -6 7 -13 15 -16 8 -4 15 -10 15
-16 0 -10 80 -133 104 -160 9 -10 16 -21 16 -25 0 -9 53 -87 63 -91 4 -2 7 -8
7 -13 0 -9 36 -65 50 -79 3 -3 11 -17 19 -32 8 -16 18 -28 23 -28 4 0 8 -5 8
-10 0 -6 50 -85 110 -175 61 -91 110 -170 110 -175 0 -6 4 -10 8 -10 5 0 19
-19 32 -42 13 -24 26 -45 30 -48 19 -16 144 -218 143 -232 -1 -9 -24 -51 -52
-93 -28 -42 -51 -80 -51 -85 0 -5 -4 -10 -8 -12 -11 -4 -92 -126 -92 -138 0
-5 -3 -10 -7 -12 -5 -1 -30 -37 -57 -78 -27 -41 -53 -77 -58 -78 -4 -2 -6 -8
-2 -13 3 -5 0 -9 -5 -9 -6 0 -11 -4 -11 -8 0 -7 -97 -160 -140 -222 -6 -8 -34
-51 -62 -95 -29 -44 -79 -120 -111 -170 -33 -49 -86 -132 -118 -182 l-58 -93
290 0 290 0 34 34 c19 18 35 36 35 39 0 6 311 487 345 534 8 13 15 26 14 29 0
4 3 10 8 13 5 3 28 37 53 75 65 102 69 104 97 70 13 -16 35 -49 50 -74 15 -25
33 -51 40 -58 7 -7 13 -17 13 -22 0 -5 6 -15 13 -22 14 -14 123 -183 145 -224
7 -13 18 -24 23 -24 6 0 7 -4 4 -10 -3 -5 -1 -10 4 -10 6 0 11 -4 11 -8 0 -12
204 -315 222 -330 10 -8 76 -11 209 -12 355 -1 369 -1 369 13 0 6 -25 50 -55
95 -30 46 -55 86 -55 88 0 3 -5 10 -10 17 -15 17 -190 287 -190 292 0 8 -65
100 -72 103 -5 2 -8 9 -8 16 0 7 -9 21 -20 31 -11 10 -20 22 -20 27 0 5 -5 14
-10 21 -23 28 -80 117 -80 126 0 5 -7 11 -15 15 -8 3 -15 10 -15 16 0 5 -54
92 -121 192 -121 182 -146 224 -145 243 1 11 56 107 66 115 3 3 10 12 14 20
10 23 23 43 124 194 50 77 92 143 92 147 0 4 4 9 8 11 4 2 19 21 32 43 13 22
28 45 33 50 16 20 407 609 407 615 0 3 9 16 20 30 40 51 42 51 -262 49 -288
-1 -322 -5 -333 -40 -4 -11 -12 -25 -18 -31 -7 -7 -35 -49 -62 -93 -27 -44
-55 -86 -61 -93 -7 -6 -16 -21 -19 -32 -3 -11 -11 -20 -16 -20 -5 0 -9 -5 -9
-10 0 -6 -16 -33 -35 -60 -19 -27 -35 -53 -36 -57 0 -5 -16 -28 -35 -53 -18
-25 -39 -56 -45 -70 -5 -13 -14 -27 -17 -30 -4 -3 -22 -27 -40 -55 -64 -100
-113 -165 -123 -165 -6 0 -169 242 -178 265 -2 6 -7 12 -10 15 -12 10 -51 69
-51 77 0 4 -14 24 -30 43 -16 19 -30 38 -30 42 0 3 -54 87 -120 187 l-120 181
-300 0 -301 0 41 -59z"/>
<path d="M11256 10153 c2 -118 5 -171 20 -368 3 -38 7 -97 9 -130 9 -111 18
-319 18 -395 0 -95 -15 -328 -27 -430 -4 -25 -8 -72 -11 -105 -3 -33 -7 -76
-10 -95 -16 -141 -27 -400 -16 -400 4 0 7 10 7 23 0 12 4 51 8 87 5 36 9 81
11 100 3 37 14 151 20 210 2 19 6 67 9 105 7 79 13 115 21 123 14 15 19 -19
16 -126 -1 -64 -4 -184 -6 -267 -2 -82 -4 -150 -5 -150 -1 0 -3 -70 -4 -155
-2 -85 -8 -166 -14 -180 -5 -14 -11 -29 -12 -35 -1 -5 -5 -14 -9 -20 -4 -5 -9
-72 -10 -149 -3 -160 -5 -173 -32 -237 -19 -43 -28 -51 -102 -89 -205 -105
-284 -87 -332 79 -30 99 -70 259 -81 315 -2 16 -6 32 -8 35 -2 3 -7 24 -10 46
-4 22 -8 47 -11 55 -2 8 -6 35 -9 60 -3 25 -8 56 -11 70 -3 13 -7 61 -10 105
-10 136 -12 158 -25 233 -7 41 -24 102 -40 135 -51 115 -90 318 -94 485 0 17
-3 32 -6 32 -3 0 -5 16 -6 35 -1 48 -16 62 -47 42 -39 -26 -50 -84 -53 -312
-10 -579 -15 -768 -29 -950 -3 -38 -8 -101 -10 -140 -2 -38 -6 -101 -9 -140
-3 -38 -8 -106 -11 -150 -3 -44 -8 -107 -11 -140 -3 -33 -7 -82 -9 -110 -7
-106 -22 -278 -30 -355 -3 -25 -7 -75 -10 -112 -4 -63 -6 -90 -21 -233 -10
-103 -17 -141 -50 -290 -14 -60 -27 -117 -29 -125 -23 -106 -89 -280 -106
-280 -5 0 -9 -6 -9 -12 0 -37 -188 -225 -262 -261 -29 -15 -51 -27 -48 -28 3
0 12 -2 21 -4 14 -2 76 7 114 18 6 2 41 19 79 37 65 33 67 35 40 41 -25 6 -26
7 -6 9 12 1 25 3 30 4 4 1 32 6 62 11 30 5 57 9 60 10 3 1 30 5 60 10 30 4 64
10 75 12 41 7 265 10 265 3 0 -11 -47 -51 -61 -54 -8 -1 -18 -4 -24 -8 -10 -6
-74 -18 -130 -24 -80 -9 -176 -34 -230 -61 -30 -15 -80 -28 -127 -33 -88 -10
-86 -9 -148 -61 -53 -44 -61 -46 -203 -54 -60 -3 -118 -10 -129 -16 -19 -10
-32 -6 -34 12 -1 5 -2 11 -3 14 -2 8 -125 -56 -129 -66 -2 -5 -11 -9 -21 -9
-9 0 -21 -4 -27 -9 -15 -14 -187 -101 -200 -101 -7 0 -14 -4 -16 -8 -4 -11
-291 -127 -338 -137 -19 -4 -39 -10 -45 -14 -5 -3 -12 -6 -15 -6 -3 -1 -30 -7
-61 -13 -30 -7 -68 -15 -84 -18 -39 -7 -132 -57 -173 -94 -76 -66 -189 -78
-269 -27 -60 38 -77 71 -79 149 -2 94 -11 132 -46 196 -53 96 -59 111 -61 138
-1 15 4 29 11 31 7 3 12 -4 12 -16 0 -13 6 -21 17 -21 9 0 14 3 10 6 -3 4 0
19 9 35 8 16 12 29 10 29 -3 0 -1 14 4 32 17 58 22 112 24 259 2 134 5 149 25
178 12 17 36 38 52 46 45 24 53 95 11 95 -10 0 -27 -9 -37 -20 -26 -29 -42
-25 -103 27 -52 44 -84 95 -96 153 -3 14 -13 52 -22 85 -9 33 -18 67 -19 75
-2 8 -4 15 -5 15 -1 0 -4 11 -6 25 -21 112 -50 139 -39 35 3 -35 8 -76 11 -91
3 -14 7 -45 9 -68 10 -90 13 -104 19 -115 15 -23 -24 -10 -52 18 -25 26 -29
36 -27 83 0 29 -3 73 -7 98 -5 25 -11 56 -13 70 -2 14 -4 25 -5 25 -2 0 -10
52 -12 80 -1 11 2 32 6 48 6 18 1 57 -15 120 -13 50 -24 94 -24 97 -25 123
-37 142 -50 72 -3 -18 -11 -59 -18 -90 -14 -61 -15 -164 -2 -387 10 -183 11
-440 1 -590 -12 -187 -13 -205 -20 -290 -4 -44 -9 -102 -11 -130 -2 -27 -7
-77 -10 -110 -17 -182 -25 -374 -16 -379 7 -5 6 -98 -3 -182 -12 -125 -106
-433 -159 -521 l-31 -53 -28 31 c-15 16 -28 32 -28 34 0 3 -37 51 -82 108 -46
57 -94 118 -108 136 -14 18 -30 38 -35 44 -11 14 -65 82 -191 242 -48 61 -90
112 -95 113 -5 2 -9 8 -9 14 0 5 -6 15 -12 22 -7 7 -24 27 -38 45 -71 92 -146
188 -158 200 -7 8 -21 25 -30 39 -9 13 -29 39 -45 57 -16 18 -30 37 -31 41 0
5 -13 20 -27 34 -14 14 -36 41 -49 60 -39 57 -70 87 -70 69 0 -24 -91 -127
-319 -359 -116 -118 -304 -311 -419 -429 -114 -117 -263 -270 -330 -339 l-124
-126 -17 23 c-15 20 -64 154 -76 208 -2 10 -13 48 -24 86 -11 37 -20 70 -20
72 -1 3 -1 6 -2 8 -3 9 -11 48 -17 82 -6 38 -8 220 -2 295 1 19 0 55 -3 80 -4
25 -9 81 -12 125 -3 44 -7 103 -10 130 -2 28 -7 84 -10 125 -4 41 -8 93 -10
115 -2 22 -7 83 -10 135 -4 52 -9 120 -11 150 -6 75 -5 428 1 515 3 39 7 140
9 225 4 131 1 170 -16 253 -21 97 -30 106 -44 44 -9 -39 -12 -52 -14 -52 -1 0
-3 -9 -4 -20 -2 -11 -10 -47 -19 -80 -23 -86 -28 -133 -17 -140 11 -7 7 -56
-16 -169 -9 -43 -17 -107 -18 -142 -1 -51 -6 -68 -26 -89 -37 -39 -50 -33 -44
23 6 53 12 87 14 87 1 0 3 18 5 40 9 92 16 151 20 163 2 6 -2 12 -10 12 -7 0
-16 -12 -19 -27 -4 -16 -8 -37 -11 -48 -12 -59 -68 -259 -80 -289 -21 -49
-112 -136 -142 -136 -8 0 -23 9 -35 20 -27 25 -55 26 -63 1 -9 -28 7 -58 45
-83 59 -39 69 -73 69 -222 -1 -142 9 -218 39 -311 17 -50 21 -56 27 -37 4 12
15 22 25 22 16 0 17 -5 10 -27 -15 -51 -23 -68 -46 -99 -13 -17 -20 -34 -17
-38 4 -3 2 -6 -4 -6 -18 0 -43 -102 -42 -170 1 -77 -9 -105 -47 -142 -82 -77
-217 -75 -308 5 -60 53 -219 119 -246 102 -5 -3 -11 -1 -14 4 -3 5 -23 12 -43
17 -49 10 -42 8 -88 23 -79 25 -265 100 -279 113 -6 4 -18 8 -28 8 -10 0 -18
5 -18 10 0 6 -5 10 -11 10 -18 0 -332 161 -353 181 -16 15 -26 10 -26 -11 0
-23 -7 -24 -47 -9 -15 6 -71 12 -123 14 -135 6 -149 10 -205 60 -27 24 -54 45
-60 46 -5 0 -30 2 -55 4 -76 6 -106 13 -141 33 -47 26 -142 50 -284 72 -47 7
-98 23 -122 37 -74 41 -56 51 87 47 52 -1 112 -5 133 -8 20 -3 53 -9 73 -12
20 -3 46 -8 58 -10 45 -9 102 -17 124 -17 12 1 22 -3 22 -8 0 -5 -4 -9 -10 -9
-5 0 -10 -5 -10 -11 0 -5 5 -7 10 -4 6 3 10 3 10 -2 0 -4 12 -13 28 -20 99
-43 126 -52 178 -58 l59 -6 -45 27 c-141 86 -261 217 -320 349 -37 84 -39 89
-51 135 -11 44 -14 58 -25 110 -3 14 -7 30 -8 35 -31 124 -48 201 -51 234 -2
20 -6 50 -9 66 -5 32 -16 141 -21 215 -2 25 -6 72 -9 105 -6 67 -16 169 -21
230 -2 22 -7 81 -11 130 -4 50 -8 111 -8 137 -1 27 -3 48 -6 48 -3 0 -6 30 -7
68 -2 68 -8 157 -18 267 -2 33 -7 107 -10 165 -4 58 -8 134 -11 170 -9 142
-13 291 -19 645 -6 410 -7 416 -25 467 -11 29 -43 58 -64 58 -10 0 -23 -75
-30 -175 -9 -122 -16 -167 -44 -280 -14 -60 -25 -113 -24 -117 1 -5 -2 -8 -7
-8 -7 0 -14 -15 -22 -50 0 -3 -5 -10 -9 -15 -9 -10 -16 -39 -25 -102 -3 -18
-8 -50 -11 -70 -3 -21 -7 -63 -9 -93 -9 -135 -15 -186 -40 -320 -20 -109 -25
-130 -37 -175 -6 -22 -12 -47 -13 -55 -2 -8 -4 -17 -5 -20 -1 -3 -2 -8 -1 -12
0 -4 -4 -20 -10 -35 -7 -15 -13 -37 -15 -48 -6 -46 -47 -160 -66 -186 -47 -63
-126 -59 -276 14 -127 62 -144 97 -147 317 -2 87 -7 156 -14 168 -7 12 -9 22
-6 22 3 0 0 10 -7 23 -7 12 -13 51 -15 87 -1 36 -2 65 -3 65 0 0 -3 97 -6 215
-2 118 -6 279 -8 357 -3 126 3 178 18 162 3 -3 8 -32 11 -65 3 -32 7 -75 9
-94 3 -19 7 -69 11 -110 6 -75 8 -91 20 -205 8 -73 13 -131 14 -169 1 -16 4
-26 8 -23 7 7 6 176 -2 242 -2 22 -7 81 -11 130 -3 50 -7 92 -9 95 -2 3 -6 41
-10 85 -8 94 -13 148 -21 230 -8 79 -8 469 -1 570 10 135 17 218 21 270 7 72
17 278 19 364 1 87 -10 97 -55 55 -53 -51 -144 -178 -153 -214 -1 -3 -7 -18
-15 -35 -14 -34 -58 -185 -66 -229 -2 -15 -11 -44 -19 -62 -8 -19 -12 -34 -10
-34 2 0 -2 -18 -10 -39 -7 -22 -11 -42 -8 -45 4 -3 0 -6 -7 -6 -7 0 -11 -3 -8
-6 4 -3 -7 -43 -23 -89 -15 -46 -31 -98 -34 -116 -8 -42 -31 -69 -56 -64 -24
5 -26 1 -33 -65 -4 -30 -9 -77 -12 -105 -13 -101 -15 -213 -18 -790 -2 -529
-5 -593 -19 -622 -10 -18 -27 -38 -40 -44 -36 -18 -77 -61 -77 -80 0 -9 19
-41 43 -71 76 -93 124 -226 162 -448 8 -48 11 -62 30 -155 9 -44 18 -89 19
-100 2 -11 6 -29 9 -40 3 -11 9 -36 12 -55 5 -29 16 -89 20 -110 21 -96 28
-127 32 -133 6 -10 30 16 108 111 28 34 53 62 58 62 4 0 7 5 7 10 0 9 34 50
78 96 6 7 12 15 12 18 0 3 10 15 23 28 12 13 33 37 47 55 15 20 30 29 37 25 8
-5 4 -21 -17 -54 -16 -26 -38 -62 -48 -80 -22 -39 -97 -158 -112 -175 -5 -6
-19 -28 -29 -47 -11 -19 -31 -52 -44 -73 -13 -21 -38 -67 -56 -103 -18 -36
-42 -78 -54 -94 -64 -82 -122 -149 -186 -215 -39 -41 -71 -75 -71 -77 0 -1
-31 -33 -68 -71 -37 -37 -83 -95 -101 -128 -41 -73 -74 -110 -112 -125 -38
-16 -50 -57 -44 -150 6 -96 8 -110 24 -139 22 -40 53 -68 112 -99 77 -41 117
-38 196 16 34 23 67 42 72 42 6 0 11 3 11 8 0 4 23 20 51 35 50 29 92 32 154
13 11 -3 58 -17 105 -32 97 -30 315 -92 345 -99 11 -2 47 -11 81 -19 71 -17
109 -26 144 -31 14 -3 113 -27 220 -55 107 -28 240 -60 295 -71 151 -30 217
-49 248 -71 15 -11 27 -16 27 -13 0 3 13 -3 29 -14 16 -12 34 -21 39 -21 6 0
12 -4 14 -8 5 -14 105 -58 204 -90 181 -60 293 -133 420 -273 30 -33 142 -133
173 -155 25 -17 71 -27 146 -30 39 -1 77 -5 85 -7 8 -2 29 -8 45 -12 58 -16
139 -68 269 -175 47 -39 88 -70 91 -70 3 0 16 -10 29 -22 13 -13 34 -32 47
-43 42 -34 152 -129 169 -145 9 -8 30 -26 46 -41 28 -24 123 -111 247 -226
l58 -53 -123 -126 c-68 -69 -168 -172 -223 -229 -415 -425 -444 -453 -466
-448 -12 3 -112 98 -223 210 -110 112 -294 298 -407 413 -122 123 -217 212
-232 215 -23 6 -54 -4 -81 -26 -6 -5 -36 -28 -66 -52 -30 -23 -57 -45 -58 -50
-2 -4 -8 -5 -13 -1 -5 3 -9 1 -9 -4 0 -5 -21 -24 -47 -43 -27 -18 -119 -88
-205 -154 -86 -66 -169 -129 -184 -140 -15 -11 -32 -24 -38 -30 -6 -5 -38 -30
-71 -55 -33 -24 -64 -48 -70 -53 -5 -4 -125 -96 -265 -203 -140 -107 -262
-200 -270 -207 -8 -7 -31 -23 -50 -37 -19 -13 -37 -27 -40 -30 -3 -3 -23 -19
-45 -36 -75 -55 -360 -274 -394 -301 -18 -16 -41 -32 -50 -37 -9 -5 -41 -29
-71 -53 -65 -52 -85 -68 -165 -128 -33 -26 -70 -54 -82 -63 -12 -9 -34 -26
-49 -37 -16 -11 -36 -28 -46 -38 -10 -9 -21 -17 -24 -17 -3 0 -27 -17 -52 -38
-26 -20 -51 -40 -57 -45 -5 -4 -21 -17 -35 -28 -14 -12 -44 -35 -67 -52 -67
-48 -53 -83 20 -52 85 36 195 86 345 156 46 22 87 39 93 39 5 0 9 4 9 8 0 5 6
9 13 9 6 0 38 12 69 27 31 14 59 26 62 26 2 0 17 5 33 12 15 6 33 12 38 14 6
1 29 9 53 18 23 8 43 15 45 15 1 -1 22 4 47 11 25 7 52 13 60 15 8 2 35 9 60
16 25 7 50 13 57 15 6 1 56 12 110 25 54 13 100 23 103 24 3 1 25 5 50 9 25 4
59 11 75 16 17 5 44 11 60 13 17 3 60 12 96 21 37 8 78 17 90 20 13 2 65 14
114 26 99 25 192 23 255 -3 19 -9 70 -40 113 -71 42 -31 81 -56 86 -56 5 0 11
-3 13 -7 4 -10 107 -73 119 -73 5 0 9 -4 9 -10 0 -5 4 -10 9 -10 5 0 59 -32
120 -70 61 -39 116 -68 121 -65 14 9 -9 65 -51 122 -22 29 -39 55 -39 58 0 4
-6 13 -12 20 -24 27 -34 40 -41 55 -4 8 -26 42 -50 75 -23 33 -83 119 -132
190 -49 72 -106 153 -127 182 -104 143 -101 154 50 202 59 19 109 37 112 40 3
3 32 20 65 36 67 34 203 161 230 215 10 19 21 37 24 40 4 3 13 21 21 40 13 33
47 87 89 140 l19 24 59 -47 c32 -25 67 -54 78 -64 11 -10 40 -34 65 -53 25
-19 47 -37 50 -40 3 -3 39 -32 80 -65 41 -33 82 -65 90 -72 8 -7 58 -47 110
-89 52 -42 106 -86 120 -97 14 -12 81 -67 150 -122 69 -54 131 -104 138 -110
7 -5 21 -17 30 -26 9 -8 37 -31 62 -49 25 -19 51 -40 58 -48 8 -7 30 -25 50
-40 21 -15 48 -37 62 -50 66 -62 87 -43 44 39 -16 30 -27 57 -26 62 1 4 -2 7
-8 7 -5 0 -10 9 -10 19 0 11 -4 22 -9 25 -12 8 -91 171 -91 189 0 22 15 29 74
33 102 6 128 18 268 127 59 46 119 92 134 103 14 10 31 24 38 29 36 32 200
147 226 158 8 4 31 17 50 29 72 44 479 246 484 240 3 -3 6 0 6 6 0 7 4 12 9
12 5 0 97 43 204 95 107 52 199 95 204 95 6 0 16 6 22 13 6 8 29 20 51 27 22
7 40 17 40 22 0 4 3 7 8 6 4 -1 27 8 52 20 25 12 66 24 92 26 43 4 81 -14 663
-305 339 -170 626 -309 636 -309 46 0 15 42 -91 123 -30 23 -61 48 -69 55 -8
8 -39 32 -70 55 -31 23 -60 47 -66 53 -5 6 -30 26 -55 45 -55 42 -88 68 -112
91 -10 10 -22 18 -27 18 -5 0 -11 3 -13 8 -1 4 -23 23 -48 42 -25 19 -47 37
-50 40 -3 3 -44 36 -92 73 -47 37 -92 73 -100 79 -7 7 -38 32 -68 55 -30 23
-65 51 -77 63 -13 11 -23 18 -23 15 0 -3 -8 3 -18 13 -9 9 -77 64 -151 121
-225 176 -233 190 -161 294 22 31 40 61 40 65 0 11 28 49 68 90 32 34 34 34
95 28 59 -5 102 -12 102 -16 0 -1 21 -4 46 -6 36 -3 51 1 69 16 13 11 20 20
17 20 -4 0 -2 12 3 26 6 15 13 43 16 63 9 59 10 65 18 101 18 83 27 108 41
114 16 6 22 0 80 -70 22 -26 52 -62 67 -79 14 -16 71 -82 125 -145 54 -63 108
-126 120 -140 11 -14 40 -47 63 -75 23 -27 65 -77 94 -109 28 -32 60 -70 71
-83 11 -14 28 -35 39 -47 10 -11 37 -43 60 -70 22 -27 50 -58 61 -70 11 -12
31 -34 43 -51 13 -16 38 -46 55 -65 29 -32 110 -127 147 -173 8 -10 26 -31 40
-46 14 -15 45 -51 70 -81 25 -29 50 -58 55 -64 6 -6 34 -41 64 -76 30 -36 62
-72 70 -81 9 -9 34 -38 56 -64 83 -102 116 -141 143 -170 15 -16 48 -55 72
-85 25 -30 54 -64 65 -75 11 -12 36 -41 55 -65 19 -24 44 -53 55 -64 11 -12
43 -48 70 -81 28 -33 60 -71 71 -85 162 -189 280 -327 286 -335 5 -5 18 -21
31 -36 37 -42 102 -120 108 -131 4 -5 16 -8 27 -6 l22 3 -21 45 c-12 25 -25
52 -30 61 -7 15 -22 78 -24 104 -1 14 47 79 120 161 11 12 34 39 50 60 17 21
49 58 72 83 23 25 43 49 43 54 0 19 29 4 40 -23 7 -17 16 -30 20 -30 3 0 13
-12 21 -28 8 -15 22 -36 32 -46 9 -11 17 -26 17 -33 0 -7 5 -13 10 -13 6 0 10
-6 10 -14 0 -8 3 -16 8 -18 4 -1 53 -73 110 -158 56 -85 110 -164 118 -175 9
-11 25 -37 37 -57 21 -36 44 -54 55 -43 3 3 7 126 8 273 2 147 5 294 8 327 12
145 17 194 22 216 2 13 7 40 10 59 8 54 33 148 57 220 11 36 20 68 19 73 -6
20 20 2 54 -40 21 -26 60 -67 86 -93 87 -85 808 -794 1088 -1070 312 -308 338
-331 406 -362 51 -23 53 -23 94 -32 60 -13 70 -14 70 -8 0 18 -72 94 -643 675
-117 119 -213 217 -213 217 1 0 -548 560 -859 877 -148 151 -279 275 -290 277
-17 3 -75 -42 -75 -58 0 -5 -48 -73 -78 -111 -5 -6 -32 -44 -60 -85 -29 -41
-65 -93 -80 -115 -57 -81 -100 -142 -157 -225 -33 -47 -68 -94 -77 -104 -10
-11 -20 -28 -24 -38 -3 -10 -10 -18 -15 -18 -5 0 -9 -7 -9 -15 0 -8 -3 -15 -7
-15 -5 0 -19 -17 -33 -38 -58 -86 -202 -282 -209 -282 -7 0 -41 37 -41 46 0 3
-10 16 -22 29 -26 28 -27 29 -93 115 -27 36 -55 72 -62 80 -21 25 -154 193
-176 223 -12 16 -27 34 -32 40 -6 7 -31 39 -57 72 -74 94 -227 287 -251 317
-12 15 -31 39 -42 54 -11 15 -26 34 -34 41 -7 8 -12 15 -10 16 7 4 99 87 208
187 200 183 301 274 411 367 23 19 191 154 234 188 22 17 44 35 50 40 20 19
91 60 99 57 4 -1 7 2 7 7 0 5 10 12 23 16 72 21 100 26 175 30 48 3 97 11 118
21 37 18 49 28 214 187 58 56 116 110 129 120 53 42 248 133 293 138 20 1 129
50 178 78 91 53 193 100 230 106 19 4 50 8 67 11 18 2 52 9 75 14 24 6 53 13
65 15 12 3 35 10 50 16 16 6 30 10 33 10 3 0 23 4 45 10 65 18 327 79 365 85
43 8 51 10 70 17 8 3 29 8 45 11 49 10 65 14 180 47 61 17 117 33 125 34 8 1
22 5 30 8 40 17 100 36 100 31 0 -2 14 2 30 11 17 9 30 13 30 11 0 -3 17 1 38
8 54 18 83 8 216 -77 72 -47 130 -77 146 -77 31 0 133 50 168 83 26 24 48 70
55 116 3 16 8 35 12 40 3 6 2 11 -4 11 -6 0 -6 11 -1 29 4 16 5 32 2 35 -3 4
-6 19 -7 34 0 36 -13 54 -55 79 -39 24 -68 59 -95 117 -10 22 -57 80 -104 130
-129 136 -138 145 -215 230 -79 86 -126 153 -170 236 -48 92 -167 284 -195
317 -6 7 -11 15 -11 18 0 3 -25 46 -54 95 -78 127 -55 130 49 5 22 -26 49 -58
60 -71 11 -13 29 -34 40 -48 11 -14 29 -36 40 -49 11 -13 35 -42 53 -64 18
-23 44 -54 57 -69 l24 -28 10 28 c6 15 13 39 16 54 2 15 9 52 15 82 6 30 13
66 16 80 2 14 11 54 19 90 8 36 17 85 20 109 3 24 7 47 10 51 3 4 7 23 10 41
2 19 7 44 10 57 10 42 13 60 19 93 6 37 9 50 26 123 17 76 79 207 110 236 3 3
16 19 28 37 34 49 29 70 -27 105 -78 48 -89 82 -85 248 10 420 -1 1085 -20
1240 -4 25 -8 70 -10 100 -4 50 -6 55 -29 56 -35 1 -42 8 -56 56 -8 24 -23 72
-34 108 -12 36 -22 67 -22 70 -1 7 -35 122 -40 138 -3 7 -5 14 -5 17 -1 3 -6
19 -11 37 -6 18 -21 75 -34 125 -24 91 -55 175 -84 223 -54 93 -123 173 -159
184 -18 6 -19 1 -16 -121z m-725 -2656 c8 -7 52 -57 98 -112 45 -55 95 -115
111 -133 17 -19 30 -36 30 -38 0 -3 125 -160 146 -183 3 -4 58 35 86 61 32 30
135 115 158 131 34 23 41 21 36 -10 -3 -16 -7 -62 -11 -103 -9 -116 -8 -113
-59 -138 -32 -15 -51 -32 -60 -53 -13 -32 -13 -45 2 -143 5 -31 6 -56 3 -56
-4 0 -21 21 -38 48 -122 184 -214 312 -332 462 -77 97 -99 123 -161 190 -46
51 -70 79 -70 85 0 10 45 4 61 -8z m-8579 -51 c-79 -82 -115 -122 -174 -196
-34 -41 -65 -76 -69 -78 -5 -2 -9 -10 -9 -17 0 -7 -3 -15 -8 -17 -4 -1 -37
-46 -74 -98 -37 -52 -71 -99 -75 -105 -5 -5 -26 -37 -48 -70 -22 -33 -43 -61
-47 -63 -5 -2 -8 -10 -8 -18 0 -8 -3 -14 -8 -14 -4 0 -16 -16 -26 -35 -23 -42
-37 -29 -25 24 15 72 17 102 8 135 -9 32 -18 39 -107 83 -2 0 -5 18 -7 40 -2
21 -7 65 -10 98 -11 103 -10 119 9 108 13 -8 37 -28 186 -155 36 -31 71 -53
76 -50 5 4 43 50 83 102 41 52 81 103 90 112 9 9 21 23 26 30 35 45 152 187
169 204 22 23 52 33 74 26 9 -3 0 -18 -26 -46z m8904 -921 c43 -60 84 -116 91
-123 18 -18 40 -73 47 -112 5 -36 -18 -134 -40 -167 -7 -12 -14 -29 -14 -38 0
-8 -4 -15 -10 -15 -5 0 -10 -5 -10 -10 0 -10 -36 -54 -80 -98 -28 -27 -133
-80 -183 -92 -18 -4 -86 -24 -153 -43 -66 -20 -133 -38 -150 -40 -43 -7 -74
-18 -74 -27 0 -14 -50 -20 -69 -8 -23 14 -19 60 12 125 21 46 37 48 37 5 0
-26 2 -25 45 23 25 27 45 53 45 57 0 18 18 5 48 -35 34 -45 62 -56 83 -31 9
11 8 14 -7 15 -11 1 -25 1 -31 0 -23 -3 -14 18 15 36 15 9 29 18 31 19 1 2 -1
9 -5 16 -20 32 -13 55 30 97 40 39 50 44 93 45 l48 1 18 85 c9 47 19 96 22
110 2 14 7 36 10 50 3 14 8 39 11 55 3 17 10 50 15 75 6 25 12 54 13 65 7 50
19 86 26 78 4 -4 43 -57 86 -118z m-9158 74 c1 -18 5 -36 9 -42 4 -6 7 -25 9
-41 1 -17 7 -51 14 -76 7 -25 14 -56 15 -70 1 -14 6 -41 11 -60 4 -19 8 -37 9
-40 1 -3 5 -25 9 -50 4 -25 12 -61 17 -82 9 -35 10 -36 60 -36 45 -1 54 -5 90
-41 39 -41 49 -77 28 -98 -7 -7 0 -17 26 -33 44 -27 40 -35 -16 -39 -18 -1
-19 -3 -5 -16 8 -8 19 -15 25 -15 12 0 61 44 61 54 0 9 30 40 34 35 2 -2 24
-27 49 -56 l45 -51 6 29 c8 42 20 36 38 -18 29 -84 31 -104 11 -118 -19 -14
-67 -3 -91 21 -7 7 -19 11 -27 8 -8 -4 -15 -1 -15 6 0 6 -4 9 -9 5 -8 -5 -28
-1 -111 19 -14 4 -132 41 -227 71 -23 7 -44 11 -47 7 -3 -3 -6 -1 -6 5 0 6
-11 14 -25 17 -46 12 -142 118 -181 200 -50 105 -56 176 -20 249 14 30 39 68
55 84 15 17 30 34 32 39 8 19 113 164 119 164 3 0 7 -14 8 -31z m6067 -471
c10 -18 17 -34 15 -34 -3 -1 2 -10 12 -20 15 -18 22 -46 19 -88 -1 -26 -14
-11 -31 34 -14 39 -38 96 -52 123 -17 32 17 19 37 -15z m-3045 12 c0 -15 -60
-164 -71 -174 -9 -10 -14 12 -9 44 3 24 53 120 63 120 4 0 5 5 2 10 -3 6 -1
10 4 10 6 0 11 -4 11 -10z m6191 -284 c23 -40 41 -46 117 -39 54 5 56 4 35
-11 -19 -15 -65 -36 -88 -41 -5 -2 -38 -10 -73 -19 -72 -19 -193 -28 -213 -15
-10 6 -11 13 -4 24 13 20 176 134 193 134 7 1 22 -14 33 -33z m-9255 -32 c17
-13 36 -24 42 -24 7 0 12 -4 12 -8 0 -4 14 -16 30 -25 52 -31 37 -60 -30 -59
-93 1 -291 49 -306 73 -3 5 -10 7 -15 4 -5 -4 -9 -2 -9 3 0 15 21 19 60 12 45
-8 85 11 105 50 16 30 16 30 48 14 18 -10 46 -28 63 -40z"/>
<path d="M12202 8527 c-31 -65 -63 -160 -77 -232 -2 -11 -6 -31 -10 -45 -3
-14 -7 -36 -10 -50 -3 -14 -7 -36 -10 -50 -5 -26 -11 -56 -21 -105 -9 -51 -15
-42 -10 15 15 166 17 262 6 255 -6 -4 -9 -9 -7 -12 3 -2 1 -21 -4 -41 -5 -20
-11 -89 -14 -152 -7 -152 -14 -260 -19 -285 -2 -11 -7 -42 -10 -69 -4 -27 -9
-53 -11 -57 -3 -4 -7 -25 -10 -46 -3 -21 -29 -136 -59 -254 -45 -178 -68 -277
-82 -344 -1 -5 -7 -36 -13 -67 -7 -32 -12 -60 -12 -63 0 -2 -4 -19 -9 -36 -5
-18 -12 -50 -16 -73 -3 -22 -8 -44 -11 -48 -2 -5 -6 -19 -9 -32 -11 -65 -46
-156 -59 -157 -8 -1 -18 -2 -22 -4 -5 -1 -25 -5 -46 -9 -53 -12 -46 -38 12
-48 25 -4 49 -12 53 -16 6 -6 -1 -36 -16 -72 -14 -35 -26 -68 -26 -72 0 -5 25
-36 57 -69 61 -64 93 -78 176 -78 51 1 85 -16 123 -60 17 -20 24 -23 27 -11 5
15 22 102 31 150 2 14 7 36 10 50 7 32 16 78 21 110 2 14 6 36 9 50 4 14 8 36
11 50 3 14 7 36 10 50 4 14 8 34 9 45 9 52 17 94 26 135 5 25 12 56 14 70 3
14 11 57 19 95 9 39 18 86 21 105 11 64 14 82 41 220 6 31 13 71 20 113 3 17
10 57 15 87 5 30 12 78 15 105 3 28 8 57 10 65 10 31 17 170 18 305 0 154 -5
227 -23 325 -6 36 -13 75 -15 88 -13 77 -70 232 -85 232 -4 0 -21 -28 -38 -63z"/>
<path d="M188 8538 c-25 -56 -51 -139 -47 -150 0 -2 -4 -16 -10 -31 -6 -16
-14 -52 -17 -80 -4 -29 -8 -55 -10 -59 -15 -25 -22 -348 -11 -478 9 -101 28
-241 42 -310 3 -14 8 -43 11 -65 3 -22 8 -51 11 -65 3 -14 7 -36 9 -50 2 -14
8 -43 13 -65 5 -22 12 -56 15 -75 3 -19 8 -51 12 -70 4 -19 8 -45 8 -57 1 -13
4 -23 9 -23 4 0 6 -3 5 -7 -2 -7 9 -79 17 -118 8 -35 26 -124 30 -143 2 -13 6
-31 9 -40 3 -9 7 -35 11 -57 3 -22 8 -49 12 -60 3 -11 7 -27 8 -35 1 -8 4 -31
8 -50 4 -19 9 -46 11 -60 2 -14 11 -59 19 -100 25 -124 30 -155 29 -162 -1 -5
5 -8 13 -8 8 0 15 4 15 10 0 5 18 22 40 36 31 20 55 28 99 30 83 3 99 10 163
72 61 59 68 78 43 126 -8 15 -17 39 -19 52 -3 13 -7 28 -11 33 -3 6 21 15 53
21 78 16 77 35 -1 53 -59 13 -60 14 -79 62 -11 28 -21 57 -23 65 -6 25 -35
151 -46 205 -6 28 -13 65 -15 83 -2 18 -6 36 -8 41 -3 5 -8 26 -12 47 -3 20
-10 48 -15 61 -5 13 -6 23 -4 23 2 0 0 11 -5 25 -5 14 -12 36 -14 48 -2 12 -9
42 -16 67 -7 25 -13 52 -15 60 -2 8 -13 53 -25 99 -11 46 -25 104 -31 130 -18
87 -20 96 -24 111 -2 8 -7 38 -11 65 -3 28 -10 73 -14 100 -4 28 -9 100 -10
160 -1 110 -2 123 -15 225 -11 93 -27 85 -20 -10 12 -162 13 -214 5 -199 -4 8
-10 32 -13 54 -3 22 -8 47 -11 55 -3 8 -7 32 -10 52 -5 32 -12 66 -31 148 -19
81 -88 240 -105 240 -4 0 -14 -15 -22 -32z"/>
<path d="M11232 8200 c0 -14 2 -19 5 -12 2 6 2 18 0 25 -3 6 -5 1 -5 -13z"/>
<path d="M2728 7949 c-7 -4 -16 -5 -20 -3 -4 3 -8 0 -8 -5 0 -6 -3 -10 -7 -9
-16 5 -83 -35 -117 -69 -57 -57 -79 -114 -83 -210 -3 -112 20 -177 89 -243
108 -104 318 -124 457 -43 58 34 86 66 119 133 21 45 26 69 25 130 0 92 -7
123 -38 176 -38 64 -122 127 -185 137 -8 2 -19 5 -25 8 -14 9 -192 7 -207 -2z
m251 -97 c59 -44 84 -91 96 -179 2 -12 6 -27 10 -32 3 -6 3 -11 -2 -11 -4 0
-7 -15 -7 -32 1 -18 -2 -37 -6 -43 -4 -5 -10 -21 -13 -35 -12 -49 -85 -111
-147 -126 -140 -32 -268 34 -300 155 -19 72 -16 149 7 201 3 8 7 18 7 22 2 16
60 78 72 78 8 0 14 4 14 9 0 10 70 30 120 33 43 4 117 -16 149 -40z"/>
<path d="M3365 7952 c-3 -4 -12 -7 -18 -7 -17 0 -15 -426 2 -477 31 -92 138
-152 268 -151 127 1 218 39 258 107 35 59 35 66 36 261 0 274 0 275 -13 270
-7 -3 -29 -6 -48 -8 l-35 -2 -5 -230 c-5 -220 -6 -231 -28 -263 -35 -48 -76
-65 -162 -65 -111 0 -164 41 -177 134 -3 24 -6 128 -7 231 -1 135 -4 191 -13
200 -10 9 -13 9 -13 0 0 -9 -5 -10 -19 -3 -10 6 -22 7 -26 3z"/>
<path d="M4036 7951 c-3 -5 -14 -7 -24 -5 -14 4 -17 -1 -16 -28 l1 -33 135 -3
135 -3 1 -247 c0 -136 1 -259 1 -274 1 -27 3 -28 51 -28 l50 0 2 273 3 272
133 3 133 3 -3 35 c-1 22 -6 33 -14 30 -7 -3 -15 0 -18 7 -3 9 -5 9 -5 0 -1
-6 -9 -9 -18 -7 -36 8 -141 9 -136 0 3 -4 -4 -5 -15 -2 -11 4 -44 6 -74 6 -79
-1 -80 -1 -120 2 -20 2 -34 -1 -31 -5 3 -5 -5 -6 -18 -1 -13 4 -33 6 -44 5
-56 -6 -71 -6 -87 1 -9 5 -19 4 -22 -1z"/>
<path d="M4763 7952 c-16 -2 -23 -11 -24 -25 -1 -27 -1 -567 0 -584 1 -20 286
-17 376 3 39 9 76 16 83 17 6 0 12 4 12 9 0 4 6 8 13 8 23 0 97 70 119 114 17
32 22 62 24 136 3 84 0 101 -22 147 -30 62 -88 115 -146 133 -24 8 -47 16 -53
19 -9 5 -48 11 -100 14 -16 2 -35 6 -42 10 -6 4 -14 4 -16 -1 -6 -8 -75 -7
-84 1 -3 3 -16 2 -29 -3 -17 -7 -24 -6 -24 3 0 7 -3 8 -8 2 -7 -10 -43 -14
-52 -5 -3 3 -15 4 -27 2z m328 -86 c134 -34 192 -136 166 -289 -14 -77 -51
-122 -127 -152 -48 -19 -210 -36 -210 -22 0 4 -6 5 -12 1 -7 -5 -24 -8 -38 -8
-20 0 -25 5 -25 27 -1 14 -3 29 -6 31 -3 3 -3 31 -1 63 2 32 4 67 3 78 -1 25
0 156 1 170 0 6 -1 15 -2 20 -1 6 -2 29 -1 53 l1 43 104 -2 c57 -1 123 -7 147
-13z"/>
<path d="M5755 7953 c-16 -2 -37 -7 -45 -10 -8 -3 -17 -7 -20 -8 -66 -16 -154
-103 -179 -178 -21 -59 -25 -175 -8 -216 30 -75 42 -96 74 -128 128 -124 385
-127 520 -6 92 82 117 276 50 399 -26 50 -99 107 -164 130 -58 20 -157 27
-228 17z m191 -82 c82 -37 125 -107 130 -211 10 -196 -113 -303 -306 -266 -94
18 -167 115 -173 231 -1 31 15 121 25 132 6 7 7 13 4 13 -7 0 5 16 43 57 58
62 191 83 277 44z"/>
<path d="M6555 7950 c-11 -4 -23 -6 -27 -4 -4 3 -9 0 -13 -6 -3 -5 -15 -10
-26 -10 -10 0 -19 -4 -19 -10 0 -5 -7 -10 -15 -10 -17 0 -95 -72 -95 -88 0 -7
-3 -12 -8 -12 -23 0 -50 -116 -46 -197 10 -181 146 -294 352 -294 180 0 308
96 340 256 4 22 7 49 6 60 -11 117 -29 166 -82 222 -36 37 -105 79 -147 89
-45 10 -197 13 -220 4z m155 -65 c83 -11 162 -87 176 -170 10 -65 10 -90 3
-133 -24 -128 -103 -194 -234 -194 -102 -1 -167 35 -212 117 -21 38 -24 54
-26 140 -3 133 70 225 193 242 19 3 37 7 39 9 2 2 7 1 11 -1 5 -3 27 -7 50
-10z"/>
<path d="M7206 7953 c-4 -4 -15 -8 -24 -8 -16 0 -17 -27 -18 -307 l-1 -308 51
0 51 0 0 128 0 127 55 5 c68 6 145 -12 176 -41 14 -13 52 -67 85 -121 l60 -98
54 0 54 0 -30 53 c-17 28 -40 64 -50 79 -11 14 -19 31 -19 37 0 6 -4 11 -10
11 -5 0 -10 5 -10 12 0 7 -21 32 -47 57 -40 37 -46 55 -18 52 6 -1 45 37 64
62 8 9 15 41 17 70 8 106 -68 175 -199 181 -35 2 -70 7 -76 10 -6 4 -11 2 -11
-4 0 -6 -5 -8 -12 -4 -11 7 -55 7 -93 0 -11 -2 -25 0 -31 5 -6 5 -14 6 -18 2z
m268 -87 c106 -44 81 -184 -35 -201 -24 -3 -73 -5 -109 -3 l-64 3 -1 108 -1
107 88 0 c53 0 102 -6 122 -14z"/>
<path d="M8410 7950 c-8 -4 -38 -18 -67 -30 -57 -25 -109 -74 -144 -135 -32
-57 -37 -194 -9 -269 47 -125 169 -196 340 -196 83 -1 102 2 169 25 64 22 81
37 79 71 -3 44 -6 46 -51 17 -23 -14 -43 -26 -44 -25 -2 1 -4 2 -5 1 -89 -27
-175 -28 -251 -4 -98 31 -151 118 -149 243 2 103 46 178 127 218 31 15 61 19
136 19 95 0 108 -3 191 -46 20 -10 39 -19 41 -19 12 0 -1 83 -14 91 -41 26
-121 42 -224 44 -61 1 -117 -1 -125 -5z"/>
<path d="M9110 7942 c-25 -8 -61 -25 -81 -38 -41 -25 -108 -102 -114 -130 -2
-11 -8 -34 -14 -51 -14 -48 -6 -161 15 -215 68 -168 308 -242 499 -154 60 27
135 99 143 136 2 8 9 27 17 42 19 40 13 193 -11 243 -37 79 -122 149 -208 173
-47 12 -202 9 -246 -6z m265 -86 c43 -30 52 -39 77 -87 19 -37 23 -59 23 -134
-1 -98 -12 -131 -64 -184 -38 -39 -91 -60 -155 -64 -135 -8 -240 78 -251 206
-2 24 -5 48 -6 53 -1 5 1 27 5 49 21 106 89 176 186 192 67 11 143 -2 185 -31z"/>
<path d="M9716 7430 c-1 -3 -2 -25 -2 -50 l1 -45 55 0 55 0 0 47 c0 27 -2 48
-5 49 -20 4 -102 3 -104 -1z"/>
<path d="M2689 6866 c-1 -25 -1 -885 0 -906 1 -13 33 -15 239 -15 l237 0 3 49
c2 27 -1 52 -6 55 -6 3 -92 6 -191 5 l-181 0 -1 95 c-1 166 2 236 11 241 5 3
82 5 170 5 88 0 164 2 168 5 4 3 8 26 8 53 l0 47 -177 0 -178 0 -3 118 c-5
182 -28 162 189 162 143 0 184 3 180 13 -2 6 -1 24 3 38 15 53 10 54 -240 55
-226 0 -230 0 -231 -20z"/>
<path d="M8780 6869 c0 -3 -7 -6 -15 -6 -8 0 -38 -10 -65 -23 l-50 -24 1 -58
c1 -40 6 -58 15 -58 7 0 15 4 18 9 8 13 90 49 128 57 55 12 103 6 133 -16 46
-33 67 -78 68 -144 0 -55 -5 -72 -37 -131 -21 -38 -62 -100 -92 -139 -102
-134 -181 -236 -208 -268 -28 -34 -28 -34 -28 -78 0 -77 -26 -69 239 -67 l237
2 -1 45 c-2 75 -1 72 -24 60 -15 -8 -24 -8 -34 0 -9 8 -15 8 -20 0 -4 -7 -12
-7 -26 0 -13 8 -25 7 -39 0 -14 -7 -26 -8 -39 0 -14 7 -22 7 -26 0 -5 -8 -11
-7 -21 1 -11 9 -14 9 -14 -1 0 -10 -3 -10 -14 -1 -10 8 -16 9 -21 1 -4 -6 -12
-7 -22 -1 -9 4 -25 6 -37 3 -17 -5 -15 1 14 39 19 24 37 46 40 49 3 3 51 66
107 140 145 193 173 255 168 374 -6 115 -71 207 -166 235 -40 12 -169 12 -169
0z"/>
<path d="M9435 6871 c-16 -5 -53 -18 -80 -30 l-50 -21 -1 -60 c-1 -33 2 -60 6
-60 3 0 31 13 61 29 48 26 103 43 149 46 27 1 82 -25 106 -50 29 -31 46 -92
40 -142 -3 -21 -5 -39 -7 -40 -1 -2 -2 -6 -3 -10 -8 -38 -90 -168 -145 -232
-9 -10 -27 -33 -41 -51 -14 -18 -57 -74 -97 -125 -61 -78 -72 -98 -74 -136 -2
-25 0 -50 4 -56 10 -17 467 -16 468 0 8 90 -3 113 -48 96 -13 -5 -23 -5 -23 0
0 5 -15 5 -34 1 -18 -4 -41 -3 -50 2 -10 5 -23 5 -37 -2 -15 -8 -24 -8 -34 0
-9 8 -15 8 -20 0 -4 -7 -12 -7 -26 0 -13 7 -25 7 -38 0 -14 -7 -22 -7 -26 0
-7 11 1 24 37 65 66 74 233 308 260 363 30 61 33 75 33 157 -1 112 -23 162
-101 225 -43 35 -153 49 -229 31z"/>
<path d="M8389 6862 c-12 -2 -16 -14 -14 -49 1 -25 -6 -81 -15 -124 -9 -44
-15 -79 -13 -79 2 0 -1 -9 -7 -20 -6 -11 -7 -20 -3 -21 62 -6 62 -7 84 51 12
30 31 75 41 99 22 48 30 129 14 138 -11 7 -63 10 -87 5z"/>
<path d="M3877 6848 c-8 -5 -12 -41 -12 -100 0 -67 -3 -93 -12 -94 -7 -1 -23
-2 -36 -3 -20 -1 -23 -6 -21 -43 1 -39 4 -43 27 -43 15 -1 30 -4 34 -8 4 -5 8
-112 9 -240 3 -252 2 -246 27 -298 27 -54 69 -71 187 -73 l65 -1 2 48 c1 42
-1 47 -20 48 -143 5 -152 9 -163 66 -9 45 -11 432 -3 445 3 5 45 9 92 9 94 0
98 2 93 63 l-2 29 -92 0 c-87 0 -92 1 -93 21 0 12 -2 53 -3 91 -2 39 -4 75 -4
80 -2 12 -58 14 -75 3z"/>
<path d="M3445 6664 c-72 -19 -127 -69 -141 -129 -12 -53 -6 -134 13 -172 22
-47 65 -75 151 -103 134 -43 154 -60 154 -126 0 -72 -60 -115 -148 -108 -49 4
-131 29 -149 45 -24 22 -35 8 -35 -45 l0 -53 43 -16 c130 -48 257 -35 324 32
46 46 56 72 58 150 3 106 -39 162 -148 200 -131 46 -145 52 -162 71 -11 12
-18 36 -18 61 0 60 33 89 112 98 33 4 61 5 61 2 0 -3 13 -7 28 -8 15 -1 41 -9
57 -17 17 -9 34 -16 38 -16 4 0 7 24 5 53 -3 51 -4 52 -42 65 -43 14 -170 24
-201 16z"/>
</g>
</svg>
